DavidHadashUpright-Medium_draw_a.ufo
<glyph name="quotedbl" format="1">
  <advance width="563"/>
  <unicode hex="0022"/>
  <outline>
    <contour>
      <point x="162" y="275" type="curve" smooth="yes"/>
      <point x="173" y="275"/>
      <point x="179" y="284"/>
      <point x="181" y="292" type="curve" smooth="yes"/>
      <point x="188" y="324"/>
      <point x="209" y="436"/>
      <point x="216" y="519" type="curve" smooth="yes"/>
      <point x="218" y="539"/>
      <point x="218" y="560"/>
      <point x="218" y="584" type="curve" smooth="yes"/>
      <point x="218" y="599"/>
      <point x="213" y="616"/>
      <point x="198" y="616" type="curve"/>
      <point x="126" y="616" type="line" smooth="yes"/>
      <point x="111" y="616"/>
      <point x="106" y="599"/>
      <point x="106" y="584" type="curve" smooth="yes"/>
      <point x="106" y="560"/>
      <point x="106" y="539"/>
      <point x="108" y="519" type="curve" smooth="yes"/>
      <point x="115" y="436"/>
      <point x="137" y="324"/>
      <point x="144" y="292" type="curve" smooth="yes"/>
      <point x="146" y="284"/>
      <point x="151" y="275"/>
    </contour>
    <contour>
      <point x="400" y="275" type="curve" smooth="yes"/>
      <point x="411" y="275"/>
      <point x="417" y="284"/>
      <point x="419" y="292" type="curve" smooth="yes"/>
      <point x="426" y="324"/>
      <point x="447" y="436"/>
      <point x="454" y="519" type="curve" smooth="yes"/>
      <point x="456" y="539"/>
      <point x="456" y="560"/>
      <point x="456" y="584" type="curve" smooth="yes"/>
      <point x="456" y="599"/>
      <point x="451" y="616"/>
      <point x="436" y="616" type="curve"/>
      <point x="364" y="616" type="line" smooth="yes"/>
      <point x="349" y="616"/>
      <point x="344" y="599"/>
      <point x="344" y="584" type="curve" smooth="yes"/>
      <point x="344" y="560"/>
      <point x="344" y="539"/>
      <point x="346" y="519" type="curve" smooth="yes"/>
      <point x="353" y="436"/>
      <point x="375" y="324"/>
      <point x="382" y="292" type="curve" smooth="yes"/>
      <point x="384" y="284"/>
      <point x="389" y="275"/>
    </contour>
  </outline>
</glyph>
<glyph name="numbersign" format="1">
  <advance width="568"/>
  <unicode hex="0023"/>
  <outline>
    <contour>
      <point x="381" y="536" type="line"/>
      <point x="380" y="533"/>
      <point x="377" y="528"/>
      <point x="372" y="528" type="curve"/>
      <point x="255" y="528" type="line" smooth="yes"/>
      <point x="252" y="528"/>
      <point x="248" y="529"/>
      <point x="248" y="532" type="curve"/>
      <point x="248" y="532"/>
      <point x="250" y="541"/>
      <point x="285" y="689" type="curve" smooth="yes"/>
      <point x="289" y="706"/>
      <point x="296" y="728"/>
      <point x="296" y="737" type="curve"/>
      <point x="296" y="743"/>
      <point x="293" y="745"/>
      <point x="289" y="745" type="curve"/>
      <point x="284" y="745"/>
      <point x="278" y="740"/>
      <point x="271" y="736" type="curve"/>
      <point x="244" y="718" type="line" smooth="yes"/>
      <point x="235" y="712"/>
      <point x="232" y="702"/>
      <point x="230" y="690" type="curve" smooth="yes"/>
      <point x="202" y="536" type="line" smooth="yes"/>
      <point x="201" y="531"/>
      <point x="198" y="528"/>
      <point x="193" y="528" type="curve"/>
      <point x="133" y="528" type="line" smooth="yes"/>
      <point x="127" y="528"/>
      <point x="120" y="527"/>
      <point x="112" y="520" type="curve"/>
      <point x="101" y="509"/>
      <point x="71" y="460"/>
      <point x="55" y="431" type="curve"/>
      <point x="54" y="429"/>
      <point x="53" y="426"/>
      <point x="53" y="423" type="curve"/>
      <point x="53" y="418"/>
      <point x="57" y="414"/>
      <point x="68" y="414" type="curve"/>
      <point x="171" y="414" type="line" smooth="yes"/>
      <point x="174" y="414"/>
      <point x="176" y="411"/>
      <point x="176" y="408" type="curve"/>
      <point x="166" y="357"/>
      <point x="162" y="339"/>
      <point x="151" y="291" type="curve"/>
      <point x="151" y="289"/>
      <point x="150" y="285"/>
      <point x="143" y="285" type="curve"/>
      <point x="72" y="285" type="line" smooth="yes"/>
      <point x="66" y="285"/>
      <point x="59" y="284"/>
      <point x="51" y="277" type="curve"/>
      <point x="40" y="266"/>
      <point x="12" y="218"/>
      <point x="-5" y="188" type="curve"/>
      <point x="-6" y="186"/>
      <point x="-7" y="183"/>
      <point x="-7" y="180" type="curve"/>
      <point x="-7" y="175"/>
      <point x="-3" y="171"/>
      <point x="8" y="171" type="curve"/>
      <point x="118" y="171" type="line" smooth="yes"/>
      <point x="123" y="171"/>
      <point x="124" y="167"/>
      <point x="124" y="164" type="curve"/>
      <point x="109" y="98"/>
      <point x="92" y="44"/>
      <point x="74" y="-16" type="curve" smooth="yes"/>
      <point x="70" y="-29"/>
      <point x="64" y="-52"/>
      <point x="64" y="-56" type="curve"/>
      <point x="64" y="-62"/>
      <point x="68" y="-66"/>
      <point x="75" y="-66" type="curve"/>
      <point x="78" y="-66"/>
      <point x="84" y="-60"/>
      <point x="91" y="-53" type="curve"/>
      <point x="102" y="-41"/>
      <point x="121" y="-21"/>
      <point x="121" y="-21" type="curve"/>
      <point x="127" y="-13"/>
      <point x="132" y="1"/>
      <point x="135" y="16" type="curve" smooth="yes"/>
      <point x="167" y="163" type="line" smooth="yes"/>
      <point x="168" y="168"/>
      <point x="170" y="171"/>
      <point x="176" y="171" type="curve"/>
      <point x="299" y="171" type="line" smooth="yes"/>
      <point x="304" y="171"/>
      <point x="305" y="169"/>
      <point x="305" y="167" type="curve" smooth="yes"/>
      <point x="305" y="163"/>
      <point x="273" y="39"/>
      <point x="256" y="-16" type="curve" smooth="yes"/>
      <point x="251" y="-31"/>
      <point x="246" y="-52"/>
      <point x="246" y="-56" type="curve"/>
      <point x="246" y="-62"/>
      <point x="250" y="-66"/>
      <point x="257" y="-66" type="curve"/>
      <point x="260" y="-66"/>
      <point x="266" y="-60"/>
      <point x="273" y="-53" type="curve"/>
      <point x="284" y="-41"/>
      <point x="303" y="-21"/>
      <point x="303" y="-21" type="curve"/>
      <point x="309" y="-13"/>
      <point x="314" y="1"/>
      <point x="317" y="16" type="curve" smooth="yes"/>
      <point x="347" y="164" type="line"/>
      <point x="348" y="166"/>
      <point x="348" y="171"/>
      <point x="356" y="171" type="curve"/>
      <point x="420" y="171" type="line" smooth="yes"/>
      <point x="433" y="171"/>
      <point x="441" y="174"/>
      <point x="445" y="179" type="curve"/>
      <point x="460" y="197"/>
      <point x="479" y="226"/>
      <point x="498" y="261" type="curve"/>
      <point x="501" y="266"/>
      <point x="503" y="271"/>
      <point x="503" y="275" type="curve"/>
      <point x="503" y="281"/>
      <point x="499" y="285"/>
      <point x="488" y="285" type="curve"/>
      <point x="377" y="285" type="line" smooth="yes"/>
      <point x="373" y="285"/>
      <point x="372" y="287"/>
      <point x="372" y="290" type="curve"/>
      <point x="398" y="406" type="line" smooth="yes"/>
      <point x="399" y="412"/>
      <point x="401" y="414"/>
      <point x="409" y="414" type="curve"/>
      <point x="479" y="414" type="line" smooth="yes"/>
      <point x="492" y="414"/>
      <point x="501" y="417"/>
      <point x="504" y="422" type="curve"/>
      <point x="521" y="445"/>
      <point x="538" y="472"/>
      <point x="555" y="503" type="curve"/>
      <point x="558" y="508"/>
      <point x="560" y="514"/>
      <point x="560" y="518" type="curve"/>
      <point x="560" y="524"/>
      <point x="556" y="528"/>
      <point x="545" y="528" type="curve"/>
      <point x="431" y="528" type="line" smooth="yes"/>
      <point x="428" y="528"/>
      <point x="426" y="529"/>
      <point x="426" y="532" type="curve"/>
      <point x="426" y="533"/>
      <point x="440" y="588"/>
      <point x="463" y="684" type="curve" smooth="yes"/>
      <point x="468" y="704"/>
      <point x="475" y="728"/>
      <point x="475" y="737" type="curve"/>
      <point x="475" y="743"/>
      <point x="472" y="745"/>
      <point x="468" y="745" type="curve"/>
      <point x="463" y="745"/>
      <point x="457" y="740"/>
      <point x="450" y="736" type="curve"/>
      <point x="423" y="718" type="line" smooth="yes"/>
      <point x="414" y="712"/>
      <point x="411" y="702"/>
      <point x="409" y="690" type="curve" smooth="yes"/>
    </contour>
    <contour>
      <point x="221" y="407" type="line"/>
      <point x="222" y="412"/>
      <point x="226" y="415"/>
      <point x="230" y="415" type="curve"/>
      <point x="349" y="415" type="line" smooth="yes"/>
      <point x="354" y="415"/>
      <point x="356" y="412"/>
      <point x="356" y="410" type="curve"/>
      <point x="356" y="404"/>
      <point x="330" y="293"/>
      <point x="330" y="292" type="curve"/>
      <point x="330" y="289"/>
      <point x="327" y="285"/>
      <point x="319" y="285" type="curve"/>
      <point x="200" y="285" type="line" smooth="yes"/>
      <point x="195" y="285"/>
      <point x="193" y="286"/>
      <point x="193" y="289" type="curve"/>
    </contour>
  </outline>
</glyph>
<glyph name="dollar" format="1">
  <advance width="567"/>
  <unicode hex="0024"/>
  <outline>
    <contour>
      <point x="110" y="127" type="curve" smooth="yes"/>
      <point x="96" y="112"/>
      <point x="64" y="57"/>
      <point x="50" y="36" type="curve" smooth="yes"/>
      <point x="48" y="32"/>
      <point x="45" y="28"/>
      <point x="45" y="24" type="curve" smooth="yes"/>
      <point x="45" y="20"/>
      <point x="47" y="17"/>
      <point x="52" y="14" type="curve" smooth="yes"/>
      <point x="90" y="-7"/>
      <point x="188" y="-20"/>
      <point x="231" y="-20" type="curve" smooth="yes"/>
      <point x="241" y="-20"/>
      <point x="242" y="-23"/>
      <point x="242" y="-32" type="curve" smooth="yes"/>
      <point x="242" y="-86"/>
      <point x="239" y="-141"/>
      <point x="239" y="-194" type="curve" smooth="yes"/>
      <point x="239" y="-199"/>
      <point x="240" y="-207"/>
      <point x="247" y="-207" type="curve" smooth="yes"/>
      <point x="250" y="-207"/>
      <point x="253" y="-206"/>
      <point x="256" y="-203" type="curve" smooth="yes"/>
      <point x="264" y="-193"/>
      <point x="286" y="-165"/>
      <point x="292" y="-151" type="curve" smooth="yes"/>
      <point x="296" y="-143"/>
      <point x="297" y="-139"/>
      <point x="297" y="-126" type="curve" smooth="yes"/>
      <point x="297" y="-88"/>
      <point x="292" y="-56"/>
      <point x="292" y="-19" type="curve" smooth="yes"/>
      <point x="292" y="-13"/>
      <point x="294" y="-13"/>
      <point x="301" y="-10" type="curve" smooth="yes"/>
      <point x="409" y="44"/>
      <point x="485" y="160"/>
      <point x="485" y="220" type="curve" smooth="yes"/>
      <point x="485" y="287"/>
      <point x="448" y="331"/>
      <point x="389" y="366" type="curve" smooth="yes"/>
      <point x="355" y="386"/>
      <point x="321" y="404"/>
      <point x="295" y="419" type="curve" smooth="yes"/>
      <point x="288" y="423"/>
      <point x="285" y="428"/>
      <point x="285" y="434" type="curve" smooth="yes"/>
      <point x="285" y="578" type="line" smooth="yes"/>
      <point x="285" y="583"/>
      <point x="290" y="587"/>
      <point x="294" y="587" type="curve" smooth="yes"/>
      <point x="310" y="587"/>
      <point x="346" y="575"/>
      <point x="375" y="565" type="curve" smooth="yes"/>
      <point x="378" y="564"/>
      <point x="382" y="563"/>
      <point x="385" y="563" type="curve" smooth="yes"/>
      <point x="389" y="563"/>
      <point x="394" y="565"/>
      <point x="398" y="569" type="curve" smooth="yes"/>
      <point x="408" y="579"/>
      <point x="443" y="635"/>
      <point x="454" y="654" type="curve" smooth="yes"/>
      <point x="457" y="659"/>
      <point x="458" y="663"/>
      <point x="458" y="665" type="curve" smooth="yes"/>
      <point x="458" y="668"/>
      <point x="456" y="673"/>
      <point x="452" y="675" type="curve" smooth="yes"/>
      <point x="402" y="693"/>
      <point x="353" y="705"/>
      <point x="290" y="705" type="curve" smooth="yes"/>
      <point x="286" y="705"/>
      <point x="285" y="706"/>
      <point x="285" y="708" type="curve" smooth="yes"/>
      <point x="285" y="728"/>
      <point x="284" y="750"/>
      <point x="284" y="765" type="curve" smooth="yes"/>
      <point x="284" y="777"/>
      <point x="283" y="781"/>
      <point x="276" y="781" type="curve" smooth="yes"/>
      <point x="274" y="781"/>
      <point x="273" y="780"/>
      <point x="271" y="778" type="curve" smooth="yes"/>
      <point x="258" y="764"/>
      <point x="248" y="752"/>
      <point x="239" y="740" type="curve" smooth="yes"/>
      <point x="234" y="734"/>
      <point x="234" y="727"/>
      <point x="234" y="721" type="curve" smooth="yes"/>
      <point x="234" y="701" type="line" smooth="yes"/>
      <point x="234" y="695"/>
      <point x="231" y="693"/>
      <point x="225" y="691" type="curve" smooth="yes"/>
      <point x="157" y="667"/>
      <point x="126" y="636"/>
      <point x="96" y="595" type="curve" smooth="yes"/>
      <point x="67" y="556"/>
      <point x="56" y="518"/>
      <point x="56" y="477" type="curve" smooth="yes"/>
      <point x="56" y="429"/>
      <point x="70" y="393"/>
      <point x="98" y="371" type="curve" smooth="yes"/>
      <point x="131" y="345"/>
      <point x="215" y="296"/>
      <point x="239" y="285" type="curve" smooth="yes"/>
      <point x="243" y="283"/>
      <point x="245" y="280"/>
      <point x="245" y="276" type="curve" smooth="yes"/>
      <point x="245" y="110" type="line" smooth="yes"/>
      <point x="245" y="101"/>
      <point x="241" y="99"/>
      <point x="237" y="99" type="curve" smooth="yes"/>
      <point x="211" y="99"/>
      <point x="158" y="119"/>
      <point x="131" y="128" type="curve" smooth="yes"/>
      <point x="125" y="130"/>
      <point x="121" y="131"/>
      <point x="117" y="131" type="curve" smooth="yes"/>
      <point x="115" y="131"/>
      <point x="112" y="129"/>
    </contour>
    <contour>
      <point x="238" y="446" type="curve"/>
      <point x="237" y="446"/>
      <point x="229" y="450"/>
      <point x="228" y="450" type="curve" smooth="yes"/>
      <point x="195" y="469"/>
      <point x="162" y="487"/>
      <point x="162" y="525" type="curve" smooth="yes"/>
      <point x="162" y="563"/>
      <point x="189" y="589"/>
      <point x="230" y="589" type="curve" smooth="yes"/>
      <point x="235" y="589"/>
      <point x="237" y="586"/>
      <point x="237" y="579" type="curve" smooth="yes"/>
      <point x="237" y="553"/>
      <point x="241" y="470"/>
      <point x="241" y="452" type="curve" smooth="yes"/>
      <point x="241" y="452"/>
      <point x="241" y="446"/>
    </contour>
    <contour>
      <point x="298" y="100" type="curve" smooth="yes"/>
      <point x="294" y="100"/>
      <point x="292" y="102"/>
      <point x="292" y="108" type="curve" smooth="yes"/>
      <point x="292" y="128"/>
      <point x="288" y="234"/>
      <point x="288" y="257" type="curve" smooth="yes"/>
      <point x="288" y="260"/>
      <point x="291" y="261"/>
      <point x="292" y="261" type="curve"/>
      <point x="308" y="254"/>
      <point x="334" y="236"/>
      <point x="346" y="227" type="curve" smooth="yes"/>
      <point x="358" y="217"/>
      <point x="374" y="196"/>
      <point x="374" y="170" type="curve" smooth="yes"/>
      <point x="374" y="149"/>
      <point x="365" y="128"/>
      <point x="353" y="117" type="curve" smooth="yes"/>
      <point x="339" y="105"/>
      <point x="310" y="100"/>
    </contour>
  </outline>
</glyph>
<glyph name="quotesingle" format="1">
  <advance width="310"/>
  <unicode hex="0027"/>
  <outline>
    <contour>
      <point x="155" y="275" type="curve"/>
      <point x="166" y="275"/>
      <point x="172" y="284"/>
      <point x="174" y="292" type="curve" smooth="yes"/>
      <point x="181" y="324"/>
      <point x="202" y="436"/>
      <point x="209" y="519" type="curve" smooth="yes"/>
      <point x="211" y="539"/>
      <point x="211" y="560"/>
      <point x="211" y="584" type="curve" smooth="yes"/>
      <point x="211" y="599"/>
      <point x="206" y="616"/>
      <point x="191" y="616" type="curve"/>
      <point x="119" y="616" type="line" smooth="yes"/>
      <point x="104" y="616"/>
      <point x="99" y="599"/>
      <point x="99" y="584" type="curve" smooth="yes"/>
      <point x="99" y="560"/>
      <point x="99" y="539"/>
      <point x="101" y="519" type="curve" smooth="yes"/>
      <point x="108" y="436"/>
      <point x="129" y="324"/>
      <point x="136" y="292" type="curve" smooth="yes"/>
      <point x="138" y="284"/>
      <point x="144" y="275"/>
    </contour>
  </outline>
</glyph>
<glyph name="parenleft" format="1">
  <advance width="408"/>
  <unicode hex="0028"/>
  <outline>
    <contour>
      <point x="185" y="299" type="curve" smooth="yes"/>
      <point x="185" y="385"/>
      <point x="215" y="467"/>
      <point x="237" y="522" type="curve" smooth="yes"/>
      <point x="254" y="565"/>
      <point x="293" y="642"/>
      <point x="313" y="678" type="curve" smooth="yes"/>
      <point x="318" y="687"/>
      <point x="320" y="690"/>
      <point x="320" y="693" type="curve" smooth="yes"/>
      <point x="320" y="697"/>
      <point x="317" y="700"/>
      <point x="313" y="700" type="curve" smooth="yes"/>
      <point x="310" y="700"/>
      <point x="302" y="697"/>
      <point x="297" y="694" type="curve" smooth="yes"/>
      <point x="277" y="682"/>
      <point x="246" y="656"/>
      <point x="242" y="653" type="curve" smooth="yes"/>
      <point x="232" y="644"/>
      <point x="219" y="629"/>
      <point x="210" y="614" type="curve" smooth="yes"/>
      <point x="202" y="601"/>
      <point x="162" y="530"/>
      <point x="145" y="495" type="curve" smooth="yes"/>
      <point x="118" y="438"/>
      <point x="78" y="352"/>
      <point x="78" y="255" type="curve" smooth="yes"/>
      <point x="78" y="190"/>
      <point x="93" y="102"/>
      <point x="128" y="23" type="curve" smooth="yes"/>
      <point x="161" y="-51"/>
      <point x="208" y="-118"/>
      <point x="242" y="-156" type="curve" smooth="yes"/>
      <point x="245" y="-160"/>
      <point x="253" y="-167"/>
      <point x="258" y="-167" type="curve" smooth="yes"/>
      <point x="263" y="-167"/>
      <point x="266" y="-164"/>
      <point x="269" y="-159" type="curve" smooth="yes"/>
      <point x="279" y="-143"/>
      <point x="303" y="-99"/>
      <point x="315" y="-68" type="curve" smooth="yes"/>
      <point x="317" y="-63"/>
      <point x="318" y="-58"/>
      <point x="318" y="-55" type="curve" smooth="yes"/>
      <point x="318" y="-48"/>
      <point x="314" y="-43"/>
      <point x="310" y="-37" type="curve" smooth="yes"/>
      <point x="279" y="8"/>
      <point x="261" y="30"/>
      <point x="227" y="106" type="curve" smooth="yes"/>
      <point x="199" y="169"/>
      <point x="185" y="245"/>
    </contour>
  </outline>
</glyph>
<glyph name="asterisk" format="1">
  <advance width="408"/>
  <unicode hex="002A"/>
  <outline>
    <contour>
      <point x="210" y="615" type="curve"/>
      <point x="215" y="612"/>
      <point x="257" y="584"/>
      <point x="262" y="580" type="curve" smooth="yes"/>
      <point x="266" y="577"/>
      <point x="271" y="576"/>
      <point x="271" y="576" type="curve" smooth="yes"/>
      <point x="275" y="576"/>
      <point x="279" y="581"/>
      <point x="279" y="587" type="curve" smooth="yes"/>
      <point x="279" y="598"/>
      <point x="260" y="637"/>
      <point x="260" y="647" type="curve" smooth="yes"/>
      <point x="260" y="655"/>
      <point x="261" y="658"/>
      <point x="264" y="660" type="curve" smooth="yes"/>
      <point x="279" y="671"/>
      <point x="298" y="685"/>
      <point x="305" y="691" type="curve" smooth="yes"/>
      <point x="312" y="697"/>
      <point x="314" y="701"/>
      <point x="314" y="703" type="curve" smooth="yes"/>
      <point x="314" y="706"/>
      <point x="312" y="710"/>
      <point x="306" y="710" type="curve" smooth="yes"/>
      <point x="250" y="710" type="line" smooth="yes"/>
      <point x="243" y="710"/>
      <point x="236" y="712"/>
      <point x="234" y="720" type="curve" smooth="yes"/>
      <point x="230" y="735"/>
      <point x="218" y="763"/>
      <point x="213" y="777" type="curve" smooth="yes"/>
      <point x="210" y="785"/>
      <point x="207" y="789"/>
      <point x="203" y="789" type="curve" smooth="yes"/>
      <point x="199" y="789"/>
      <point x="196" y="785"/>
      <point x="194" y="780" type="curve" smooth="yes"/>
      <point x="190" y="766"/>
      <point x="177" y="735"/>
      <point x="173" y="720" type="curve" smooth="yes"/>
      <point x="171" y="712"/>
      <point x="164" y="710"/>
      <point x="157" y="710" type="curve" smooth="yes"/>
      <point x="98" y="710" type="line" smooth="yes"/>
      <point x="92" y="710"/>
      <point x="90" y="705"/>
      <point x="90" y="702" type="curve" smooth="yes"/>
      <point x="90" y="700"/>
      <point x="91" y="696"/>
      <point x="95" y="694" type="curve" smooth="yes"/>
      <point x="100" y="691"/>
      <point x="128" y="672"/>
      <point x="143" y="660" type="curve" smooth="yes"/>
      <point x="145" y="658"/>
      <point x="146" y="655"/>
      <point x="146" y="647" type="curve" smooth="yes"/>
      <point x="146" y="640"/>
      <point x="126" y="597"/>
      <point x="126" y="586" type="curve" smooth="yes"/>
      <point x="126" y="580"/>
      <point x="130" y="576"/>
      <point x="135" y="576" type="curve" smooth="yes"/>
      <point x="136" y="576"/>
      <point x="139" y="577"/>
      <point x="141" y="579" type="curve" smooth="yes"/>
      <point x="147" y="582"/>
      <point x="191" y="612"/>
      <point x="197" y="615" type="curve"/>
      <point x="199" y="617"/>
      <point x="201" y="618"/>
      <point x="203" y="618" type="curve" smooth="yes"/>
      <point x="205" y="618"/>
      <point x="207" y="617"/>
    </contour>
  </outline>
</glyph>
<glyph name="comma" format="1">
  <advance width="390"/>
  <unicode hex="002C"/>
  <outline>
    <contour>
      <point x="159" y="15" type="curve" smooth="yes"/>
      <point x="153" y="-36"/>
      <point x="108" y="-159"/>
      <point x="108" y="-173" type="curve" smooth="yes"/>
      <point x="108" y="-179"/>
      <point x="114" y="-184"/>
      <point x="119" y="-184" type="curve" smooth="yes"/>
      <point x="157" y="-184"/>
      <point x="242" y="-37"/>
      <point x="257" y="-3" type="curve" smooth="yes"/>
      <point x="270" y="28"/>
      <point x="282" y="60"/>
      <point x="282" y="97" type="curve" smooth="yes"/>
      <point x="282" y="154"/>
      <point x="257" y="192"/>
      <point x="246" y="192" type="curve" smooth="yes"/>
      <point x="240" y="192"/>
      <point x="234" y="189"/>
      <point x="227" y="182" type="curve" smooth="yes"/>
      <point x="204" y="159"/>
      <point x="172" y="126"/>
      <point x="161" y="112" type="curve" smooth="yes"/>
      <point x="158" y="107"/>
      <point x="155" y="102"/>
      <point x="155" y="96" type="curve" smooth="yes"/>
      <point x="155" y="85"/>
      <point x="160" y="66"/>
      <point x="160" y="42" type="curve" smooth="yes"/>
      <point x="160" y="34"/>
      <point x="160" y="25"/>
    </contour>
  </outline>
</glyph>
<glyph name="period" format="1">
  <advance width="385"/>
  <unicode hex="002E"/>
  <outline>
    <contour>
      <point x="130" y="54" type="curve"/>
      <point x="149" y="29"/>
      <point x="184" y="-1"/>
      <point x="211" y="-17" type="curve" smooth="yes"/>
      <point x="214" y="-19"/>
      <point x="218" y="-20"/>
      <point x="222" y="-20" type="curve" smooth="yes"/>
      <point x="226" y="-20"/>
      <point x="231" y="-18"/>
      <point x="234" y="-15" type="curve" smooth="yes"/>
      <point x="253" y="3"/>
      <point x="281" y="34"/>
      <point x="297" y="59" type="curve" smooth="yes"/>
      <point x="300" y="64"/>
      <point x="303" y="69"/>
      <point x="303" y="74" type="curve" smooth="yes"/>
      <point x="303" y="81"/>
      <point x="299" y="86"/>
      <point x="294" y="89" type="curve" smooth="yes"/>
      <point x="273" y="101"/>
      <point x="239" y="134"/>
      <point x="219" y="152" type="curve" smooth="yes"/>
      <point x="214" y="156"/>
      <point x="211" y="158"/>
      <point x="206" y="158" type="curve" smooth="yes"/>
      <point x="201" y="158"/>
      <point x="196" y="155"/>
      <point x="192" y="151" type="curve" smooth="yes"/>
      <point x="180" y="138"/>
      <point x="144" y="99"/>
      <point x="129" y="81" type="curve" smooth="yes"/>
      <point x="125" y="76"/>
      <point x="124" y="72"/>
      <point x="124" y="68" type="curve" smooth="yes"/>
      <point x="124" y="63"/>
      <point x="127" y="58"/>
    </contour>
  </outline>
</glyph>
<glyph name="slash" format="1">
  <advance width="408"/>
  <unicode hex="002F"/>
  <outline>
    <contour>
      <point x="168" y="265" type="curve"/>
      <point x="112" y="126"/>
      <point x="50" y="-4"/>
      <point x="22" y="-72" type="curve" smooth="yes"/>
      <point x="20" y="-77"/>
      <point x="18" y="-83"/>
      <point x="18" y="-87" type="curve" smooth="yes"/>
      <point x="18" y="-93"/>
      <point x="22" y="-97"/>
      <point x="29" y="-97" type="curve" smooth="yes"/>
      <point x="32" y="-97"/>
      <point x="35" y="-96"/>
      <point x="40" y="-93" type="curve" smooth="yes"/>
      <point x="52" y="-86"/>
      <point x="75" y="-71"/>
      <point x="90" y="-57" type="curve" smooth="yes"/>
      <point x="98" y="-49"/>
      <point x="108" y="-21"/>
      <point x="119" y="5" type="curve" smooth="yes"/>
      <point x="155" y="88"/>
      <point x="188" y="175"/>
      <point x="231" y="283" type="curve" smooth="yes"/>
      <point x="264" y="366"/>
      <point x="355" y="583"/>
      <point x="384" y="658" type="curve" smooth="yes"/>
      <point x="386" y="663"/>
      <point x="389" y="674"/>
      <point x="389" y="678" type="curve" smooth="yes"/>
      <point x="389" y="681"/>
      <point x="386" y="685"/>
      <point x="382" y="685" type="curve" smooth="yes"/>
      <point x="376" y="685"/>
      <point x="368" y="680"/>
      <point x="362" y="675" type="curve" smooth="yes"/>
      <point x="317" y="641" type="line" smooth="yes"/>
      <point x="307" y="634"/>
      <point x="303" y="626"/>
      <point x="299" y="614" type="curve" smooth="yes"/>
      <point x="285" y="575"/>
      <point x="233" y="426"/>
    </contour>
  </outline>
</glyph>
<glyph name="six" format="1">
  <advance width="567"/>
  <unicode hex="0036"/>
  <outline>
    <contour>
      <point x="120" y="401" type="curve" smooth="yes"/>
      <point x="85" y="336"/>
      <point x="48" y="262"/>
      <point x="48" y="193" type="curve" smooth="yes"/>
      <point x="48" y="121"/>
      <point x="86" y="70"/>
      <point x="121" y="38" type="curve" smooth="yes"/>
      <point x="155" y="7"/>
      <point x="206" y="-17"/>
      <point x="259" y="-17" type="curve" smooth="yes"/>
      <point x="392" y="-17"/>
      <point x="505" y="129"/>
      <point x="505" y="239" type="curve" smooth="yes"/>
      <point x="505" y="338"/>
      <point x="449" y="439"/>
      <point x="334" y="439" type="curve" smooth="yes"/>
      <point x="281" y="439"/>
      <point x="254" y="417"/>
      <point x="250" y="417" type="curve" smooth="yes"/>
      <point x="248" y="417"/>
      <point x="246" y="418"/>
      <point x="246" y="420" type="curve" smooth="yes"/>
      <point x="246" y="422"/>
      <point x="251" y="429"/>
      <point x="260" y="443" type="curve" smooth="yes"/>
      <point x="300" y="507"/>
      <point x="368" y="603"/>
      <point x="398" y="644" type="curve" smooth="yes"/>
      <point x="422" y="677" type="line" smooth="yes"/>
      <point x="429" y="686"/>
      <point x="435" y="695"/>
      <point x="435" y="702" type="curve" smooth="yes"/>
      <point x="435" y="709"/>
      <point x="433" y="716"/>
      <point x="422" y="716" type="curve" smooth="yes"/>
      <point x="412" y="716"/>
      <point x="355" y="695"/>
      <point x="323" y="678" type="curve" smooth="yes"/>
      <point x="303" y="667"/>
      <point x="292" y="655"/>
      <point x="280" y="641" type="curve" smooth="yes"/>
      <point x="236" y="591"/>
      <point x="168" y="490"/>
    </contour>
    <contour>
      <point x="398" y="210" type="curve" smooth="yes"/>
      <point x="398" y="147"/>
      <point x="357" y="102"/>
      <point x="290" y="102" type="curve" smooth="yes"/>
      <point x="233" y="102"/>
      <point x="163" y="152"/>
      <point x="163" y="224" type="curve" smooth="yes"/>
      <point x="163" y="289"/>
      <point x="211" y="334"/>
      <point x="275" y="334" type="curve" smooth="yes"/>
      <point x="343" y="334"/>
      <point x="398" y="271"/>
    </contour>
  </outline>
</glyph>
<glyph name="seven" format="1">
  <advance width="568"/>
  <unicode hex="0037"/>
  <outline>
    <contour>
      <point x="136" y="134" type="curve" smooth="yes"/>
      <point x="123" y="99"/>
      <point x="112" y="54"/>
      <point x="112" y="-7" type="curve" smooth="yes"/>
      <point x="112" y="-17"/>
      <point x="117" y="-24"/>
      <point x="125" y="-24" type="curve" smooth="yes"/>
      <point x="130" y="-24"/>
      <point x="138" y="-18"/>
      <point x="144" y="-13" type="curve" smooth="yes"/>
      <point x="176" y="13"/>
      <point x="218" y="54"/>
      <point x="245" y="87" type="curve" smooth="yes"/>
      <point x="253" y="97"/>
      <point x="259" y="109"/>
      <point x="259" y="122" type="curve" smooth="yes"/>
      <point x="259" y="139"/>
      <point x="270" y="178"/>
      <point x="277" y="200" type="curve" smooth="yes"/>
      <point x="296" y="257"/>
      <point x="340" y="331"/>
      <point x="376" y="383" type="curve" smooth="yes"/>
      <point x="401" y="419"/>
      <point x="455" y="497"/>
      <point x="480" y="546" type="curve" smooth="yes"/>
      <point x="501" y="587"/>
      <point x="519" y="632"/>
      <point x="519" y="648" type="curve" smooth="yes"/>
      <point x="519" y="660"/>
      <point x="516" y="674"/>
      <point x="491" y="674" type="curve"/>
      <point x="207" y="674" type="line" smooth="yes"/>
      <point x="177" y="674"/>
      <point x="172" y="677"/>
      <point x="163" y="704" type="curve" smooth="yes"/>
      <point x="160" y="712"/>
      <point x="154" y="718"/>
      <point x="146" y="718" type="curve" smooth="yes"/>
      <point x="140" y="718"/>
      <point x="136" y="715"/>
      <point x="130" y="708" type="curve" smooth="yes"/>
      <point x="104" y="677"/>
      <point x="77" y="629"/>
      <point x="55" y="586" type="curve" smooth="yes"/>
      <point x="51" y="577"/>
      <point x="44" y="566"/>
      <point x="44" y="561" type="curve" smooth="yes"/>
      <point x="44" y="547"/>
      <point x="51" y="541"/>
      <point x="69" y="541" type="curve" smooth="yes"/>
      <point x="328" y="541" type="line" smooth="yes"/>
      <point x="339" y="541"/>
      <point x="344" y="537"/>
      <point x="344" y="528" type="curve" smooth="yes"/>
      <point x="344" y="499"/>
      <point x="298" y="414"/>
      <point x="261" y="356" type="curve" smooth="yes"/>
      <point x="207" y="273"/>
      <point x="160" y="197"/>
    </contour>
  </outline>
</glyph>
<glyph name="less" format="1">
  <advance width="544"/>
  <unicode hex="003C"/>
  <outline>
    <contour>
      <point x="276" y="184" type="curve" smooth="yes"/>
      <point x="326" y="159"/>
      <point x="441" y="96"/>
      <point x="441" y="96" type="curve"/>
      <point x="445" y="94"/>
      <point x="449" y="92"/>
      <point x="452" y="92" type="curve" smooth="yes"/>
      <point x="458" y="92"/>
      <point x="460" y="95"/>
      <point x="464" y="103" type="curve" smooth="yes"/>
      <point x="486" y="146" type="line" smooth="yes"/>
      <point x="489" y="152"/>
      <point x="490" y="155"/>
      <point x="490" y="158" type="curve" smooth="yes"/>
      <point x="490" y="162"/>
      <point x="488" y="166"/>
      <point x="480" y="170" type="curve" smooth="yes"/>
      <point x="443" y="187"/>
      <point x="369" y="223"/>
      <point x="294" y="261" type="curve" smooth="yes"/>
      <point x="253" y="282"/>
      <point x="212" y="303"/>
      <point x="176" y="323" type="curve"/>
      <point x="314" y="395" type="line" smooth="yes"/>
      <point x="355" y="416"/>
      <point x="480" y="476"/>
      <point x="480" y="476" type="curve"/>
      <point x="487" y="480"/>
      <point x="490" y="483"/>
      <point x="490" y="488" type="curve" smooth="yes"/>
      <point x="490" y="492"/>
      <point x="489" y="495"/>
      <point x="486" y="501" type="curve"/>
      <point x="460" y="545" type="line"/>
      <point x="456" y="551"/>
      <point x="452" y="553"/>
      <point x="451" y="553" type="curve" smooth="yes"/>
      <point x="448" y="553"/>
      <point x="444" y="552"/>
      <point x="441" y="550" type="curve" smooth="yes"/>
      <point x="387" y="520"/>
      <point x="208" y="428"/>
      <point x="81" y="365" type="curve" smooth="yes"/>
      <point x="71" y="360"/>
      <point x="66" y="359"/>
      <point x="66" y="348" type="curve" smooth="yes"/>
      <point x="66" y="300" type="line" smooth="yes"/>
      <point x="66" y="288"/>
      <point x="71" y="285"/>
      <point x="79" y="281" type="curve" smooth="yes"/>
      <point x="172" y="234"/>
      <point x="246" y="199"/>
    </contour>
  </outline>
</glyph>
<glyph name="greater" format="1">
  <advance width="544"/>
  <unicode hex="003E"/>
  <outline>
    <contour>
      <point x="280" y="184" type="curve" smooth="yes"/>
      <point x="230" y="159"/>
      <point x="115" y="96"/>
      <point x="115" y="96" type="curve"/>
      <point x="111" y="94"/>
      <point x="105" y="92"/>
      <point x="102" y="92" type="curve" smooth="yes"/>
      <point x="97" y="92"/>
      <point x="96" y="93"/>
      <point x="92" y="101" type="curve" smooth="yes"/>
      <point x="70" y="147" type="line" smooth="yes"/>
      <point x="68" y="151"/>
      <point x="66" y="155"/>
      <point x="66" y="158" type="curve" smooth="yes"/>
      <point x="66" y="162"/>
      <point x="68" y="166"/>
      <point x="76" y="170" type="curve" smooth="yes"/>
      <point x="113" y="187"/>
      <point x="187" y="223"/>
      <point x="262" y="261" type="curve" smooth="yes"/>
      <point x="303" y="282"/>
      <point x="344" y="303"/>
      <point x="380" y="323" type="curve"/>
      <point x="242" y="395" type="line" smooth="yes"/>
      <point x="201" y="416"/>
      <point x="76" y="476"/>
      <point x="76" y="476" type="curve"/>
      <point x="69" y="480"/>
      <point x="66" y="483"/>
      <point x="66" y="488" type="curve" smooth="yes"/>
      <point x="66" y="492"/>
      <point x="67" y="495"/>
      <point x="70" y="501" type="curve"/>
      <point x="96" y="545" type="line"/>
      <point x="100" y="551"/>
      <point x="104" y="553"/>
      <point x="105" y="553" type="curve" smooth="yes"/>
      <point x="108" y="553"/>
      <point x="112" y="552"/>
      <point x="115" y="550" type="curve" smooth="yes"/>
      <point x="169" y="520"/>
      <point x="348" y="428"/>
      <point x="475" y="365" type="curve" smooth="yes"/>
      <point x="485" y="360"/>
      <point x="490" y="359"/>
      <point x="490" y="348" type="curve" smooth="yes"/>
      <point x="490" y="300" type="line" smooth="yes"/>
      <point x="490" y="288"/>
      <point x="485" y="285"/>
      <point x="477" y="281" type="curve" smooth="yes"/>
      <point x="384" y="234"/>
      <point x="310" y="199"/>
    </contour>
  </outline>
</glyph>
<glyph name="question" format="1">
  <advance width="408"/>
  <unicode hex="003F"/>
  <outline>
    <contour>
      <point x="132" y="304" type="curve" smooth="yes"/>
      <point x="132" y="281"/>
      <point x="151" y="246"/>
      <point x="173" y="227" type="curve" smooth="yes"/>
      <point x="181" y="220"/>
      <point x="188" y="216"/>
      <point x="195" y="216" type="curve" smooth="yes"/>
      <point x="199" y="216"/>
      <point x="204" y="218"/>
      <point x="211" y="226" type="curve" smooth="yes"/>
      <point x="224" y="241"/>
      <point x="237" y="254"/>
      <point x="249" y="273" type="curve" smooth="yes"/>
      <point x="254" y="281"/>
      <point x="260" y="288"/>
      <point x="260" y="296" type="curve" smooth="yes"/>
      <point x="260" y="302"/>
      <point x="256" y="305"/>
      <point x="251" y="310" type="curve" smooth="yes"/>
      <point x="237" y="326"/>
      <point x="231" y="339"/>
      <point x="231" y="352" type="curve" smooth="yes"/>
      <point x="231" y="408"/>
      <point x="339" y="462"/>
      <point x="339" y="575" type="curve" smooth="yes"/>
      <point x="339" y="658"/>
      <point x="234" y="721"/>
      <point x="167" y="721" type="curve" smooth="yes"/>
      <point x="153" y="721"/>
      <point x="145" y="719"/>
      <point x="133" y="704" type="curve" smooth="yes"/>
      <point x="112" y="679"/>
      <point x="91" y="654"/>
      <point x="76" y="634" type="curve" smooth="yes"/>
      <point x="70" y="626"/>
      <point x="66" y="619"/>
      <point x="66" y="616" type="curve" smooth="yes"/>
      <point x="66" y="611"/>
      <point x="68" y="608"/>
      <point x="74" y="606" type="curve" smooth="yes"/>
      <point x="126" y="592"/>
      <point x="221" y="580"/>
      <point x="221" y="506" type="curve" smooth="yes"/>
      <point x="221" y="425"/>
      <point x="132" y="383"/>
    </contour>
    <contour>
      <point x="125" y="54" type="curve" smooth="yes"/>
      <point x="144" y="28"/>
      <point x="179" y="-2"/>
      <point x="206" y="-18" type="curve" smooth="yes"/>
      <point x="209" y="-20"/>
      <point x="213" y="-21"/>
      <point x="217" y="-21" type="curve" smooth="yes"/>
      <point x="221" y="-21"/>
      <point x="225" y="-19"/>
      <point x="228" y="-16" type="curve" smooth="yes"/>
      <point x="247" y="3"/>
      <point x="276" y="33"/>
      <point x="292" y="58" type="curve" smooth="yes"/>
      <point x="295" y="63"/>
      <point x="298" y="69"/>
      <point x="298" y="74" type="curve" smooth="yes"/>
      <point x="298" y="80"/>
      <point x="294" y="85"/>
      <point x="289" y="89" type="curve" smooth="yes"/>
      <point x="269" y="102"/>
      <point x="234" y="134"/>
      <point x="214" y="151" type="curve" smooth="yes"/>
      <point x="209" y="155"/>
      <point x="206" y="158"/>
      <point x="201" y="158" type="curve" smooth="yes"/>
      <point x="196" y="158"/>
      <point x="191" y="155"/>
      <point x="187" y="150" type="curve" smooth="yes"/>
      <point x="176" y="137"/>
      <point x="140" y="97"/>
      <point x="124" y="80" type="curve" smooth="yes"/>
      <point x="120" y="76"/>
      <point x="119" y="71"/>
      <point x="119" y="67" type="curve" smooth="yes"/>
      <point x="119" y="63"/>
      <point x="122" y="58"/>
    </contour>
  </outline>
</glyph>
<glyph name="bracketleft" format="1">
  <advance width="408"/>
  <unicode hex="005B"/>
  <outline>
    <contour>
      <point x="74" y="-42" type="curve" smooth="yes"/>
      <point x="74" y="-112"/>
      <point x="99" y="-138"/>
      <point x="168" y="-138" type="curve" smooth="yes"/>
      <point x="272" y="-138" type="line" smooth="yes"/>
      <point x="292" y="-138"/>
      <point x="305" y="-133"/>
      <point x="319" y="-122" type="curve" smooth="yes"/>
      <point x="330" y="-114"/>
      <point x="340" y="-106"/>
      <point x="353" y="-93" type="curve" smooth="yes"/>
      <point x="360" y="-86"/>
      <point x="365" y="-82"/>
      <point x="365" y="-77" type="curve" smooth="yes"/>
      <point x="365" y="-71"/>
      <point x="359" y="-69"/>
      <point x="348" y="-69" type="curve" smooth="yes"/>
      <point x="195" y="-69" type="line" smooth="yes"/>
      <point x="180" y="-69"/>
      <point x="169" y="-60"/>
      <point x="169" y="-39" type="curve" smooth="yes"/>
      <point x="168" y="12"/>
      <point x="167" y="208"/>
      <point x="167" y="302" type="curve"/>
      <point x="167" y="344"/>
      <point x="166" y="441"/>
      <point x="166" y="514" type="curve" smooth="yes"/>
      <point x="166" y="604"/>
      <point x="167" y="624"/>
      <point x="194" y="624" type="curve" smooth="yes"/>
      <point x="288" y="624" type="line" smooth="yes"/>
      <point x="297" y="624"/>
      <point x="308" y="629"/>
      <point x="322" y="640" type="curve" smooth="yes"/>
      <point x="332" y="648"/>
      <point x="345" y="660"/>
      <point x="354" y="669" type="curve" smooth="yes"/>
      <point x="362" y="677"/>
      <point x="365" y="681"/>
      <point x="365" y="686" type="curve" smooth="yes"/>
      <point x="365" y="692"/>
      <point x="359" y="693"/>
      <point x="351" y="693" type="curve" smooth="yes"/>
      <point x="136" y="693" type="line" smooth="yes"/>
      <point x="92" y="693"/>
      <point x="72" y="650"/>
      <point x="72" y="611" type="curve" smooth="yes"/>
      <point x="72" y="558"/>
      <point x="79" y="426"/>
      <point x="79" y="312" type="curve" smooth="yes"/>
      <point x="79" y="155"/>
      <point x="74" y="45"/>
    </contour>
  </outline>
</glyph>
<glyph name="backslash" format="1">
  <advance width="408"/>
  <unicode hex="005C"/>
  <outline>
    <contour>
      <point x="329" y="-84" type="line"/>
      <point x="334" y="-96"/>
      <point x="339" y="-101"/>
      <point x="344" y="-101" type="curve" smooth="yes"/>
      <point x="350" y="-101"/>
      <point x="355" y="-93"/>
      <point x="356" y="-87" type="curve" smooth="yes"/>
      <point x="359" y="-74"/>
      <point x="366" y="-30"/>
      <point x="366" y="-19" type="curve" smooth="yes"/>
      <point x="366" y="-9"/>
      <point x="361" y="1"/>
      <point x="359" y="5" type="curve" smooth="yes"/>
      <point x="310" y="105"/>
      <point x="263" y="223"/>
      <point x="225" y="320" type="curve" smooth="yes"/>
      <point x="176" y="444"/>
      <point x="106" y="616"/>
      <point x="82" y="677" type="curve" smooth="yes"/>
      <point x="80" y="682"/>
      <point x="76" y="685"/>
      <point x="72" y="685" type="curve" smooth="yes"/>
      <point x="67" y="685"/>
      <point x="63" y="680"/>
      <point x="60" y="672" type="curve" smooth="yes"/>
      <point x="54" y="657"/>
      <point x="48" y="645"/>
      <point x="44" y="630" type="curve" smooth="yes"/>
      <point x="43" y="625"/>
      <point x="41" y="619"/>
      <point x="41" y="612" type="curve" smooth="yes"/>
      <point x="41" y="604"/>
      <point x="50" y="589"/>
      <point x="55" y="579" type="curve" smooth="yes"/>
      <point x="89" y="510"/>
      <point x="117" y="449"/>
      <point x="183" y="283" type="curve" smooth="yes"/>
    </contour>
  </outline>
</glyph>
<glyph name="braceleft" format="1">
  <advance width="408"/>
  <unicode hex="007B"/>
  <outline>
    <contour>
      <point x="243" y="-68" type="line"/>
      <point x="200" y="-68"/>
      <point x="194" y="-29"/>
      <point x="194" y="1" type="curve" smooth="yes"/>
      <point x="194" y="31"/>
      <point x="198" y="85"/>
      <point x="198" y="132" type="curve" smooth="yes"/>
      <point x="198" y="198"/>
      <point x="182" y="242"/>
      <point x="146" y="266" type="curve" smooth="yes"/>
      <point x="136" y="272" type="line" smooth="yes"/>
      <point x="134" y="273"/>
      <point x="133" y="275"/>
      <point x="133" y="278" type="curve" smooth="yes"/>
      <point x="133" y="281"/>
      <point x="134" y="283"/>
      <point x="136" y="284" type="curve" smooth="yes"/>
      <point x="179" y="306"/>
      <point x="198" y="352"/>
      <point x="198" y="424" type="curve" smooth="yes"/>
      <point x="198" y="467"/>
      <point x="194" y="523"/>
      <point x="194" y="553" type="curve" smooth="yes"/>
      <point x="194" y="593"/>
      <point x="199" y="624"/>
      <point x="257" y="624" type="curve" smooth="yes"/>
      <point x="287" y="624" type="line" smooth="yes"/>
      <point x="294" y="624"/>
      <point x="306" y="628"/>
      <point x="318" y="639" type="curve" smooth="yes"/>
      <point x="330" y="650"/>
      <point x="341" y="658"/>
      <point x="350" y="667" type="curve" smooth="yes"/>
      <point x="357" y="675"/>
      <point x="364" y="681"/>
      <point x="364" y="687" type="curve" smooth="yes"/>
      <point x="364" y="693"/>
      <point x="358" y="694"/>
      <point x="350" y="694" type="curve" smooth="yes"/>
      <point x="227" y="694" type="line" smooth="yes"/>
      <point x="134" y="694"/>
      <point x="100" y="645"/>
      <point x="100" y="559" type="curve" smooth="yes"/>
      <point x="100" y="520"/>
      <point x="108" y="473"/>
      <point x="108" y="427" type="curve" smooth="yes"/>
      <point x="108" y="388"/>
      <point x="100" y="355"/>
      <point x="63" y="340" type="curve" smooth="yes"/>
      <point x="58" y="338"/>
      <point x="52" y="333"/>
      <point x="52" y="326" type="curve" smooth="yes"/>
      <point x="52" y="230" type="line" smooth="yes"/>
      <point x="52" y="223"/>
      <point x="58" y="218"/>
      <point x="63" y="216" type="curve" smooth="yes"/>
      <point x="101" y="201"/>
      <point x="108" y="167"/>
      <point x="108" y="129" type="curve" smooth="yes"/>
      <point x="108" y="83"/>
      <point x="101" y="36"/>
      <point x="101" y="-2" type="curve" smooth="yes"/>
      <point x="101" y="-89"/>
      <point x="134" y="-137"/>
      <point x="228" y="-137" type="curve" smooth="yes"/>
      <point x="276" y="-137" type="line" smooth="yes"/>
      <point x="294" y="-137"/>
      <point x="307" y="-133"/>
      <point x="319" y="-123" type="curve" smooth="yes"/>
      <point x="334" y="-110"/>
      <point x="342" y="-100"/>
      <point x="352" y="-90" type="curve" smooth="yes"/>
      <point x="357" y="-85"/>
      <point x="360" y="-81"/>
      <point x="363" y="-76" type="curve"/>
      <point x="363" y="-70"/>
      <point x="358" y="-68"/>
      <point x="349" y="-68" type="curve" smooth="yes"/>
    </contour>
  </outline>
</glyph>
<glyph name="braceright" format="1">
  <advance width="408"/>
  <unicode hex="007D"/>
  <outline>
    <contour>
      <point x="165" y="625" type="line"/>
      <point x="208" y="625"/>
      <point x="214" y="586"/>
      <point x="214" y="555" type="curve" smooth="yes"/>
      <point x="214" y="525"/>
      <point x="210" y="471"/>
      <point x="210" y="424" type="curve" smooth="yes"/>
      <point x="210" y="348"/>
      <point x="230" y="312"/>
      <point x="272" y="284" type="curve" smooth="yes"/>
      <point x="274" y="283"/>
      <point x="275" y="281"/>
      <point x="275" y="278" type="curve" smooth="yes"/>
      <point x="275" y="275"/>
      <point x="274" y="273"/>
      <point x="272" y="272" type="curve" smooth="yes"/>
      <point x="229" y="250"/>
      <point x="210" y="204"/>
      <point x="210" y="132" type="curve" smooth="yes"/>
      <point x="210" y="89"/>
      <point x="214" y="34"/>
      <point x="214" y="4" type="curve" smooth="yes"/>
      <point x="214" y="-36"/>
      <point x="209" y="-67"/>
      <point x="151" y="-67" type="curve" smooth="yes"/>
      <point x="121" y="-67" type="line" smooth="yes"/>
      <point x="113" y="-67"/>
      <point x="105" y="-69"/>
      <point x="92" y="-79" type="curve" smooth="yes"/>
      <point x="80" y="-89"/>
      <point x="65" y="-102"/>
      <point x="55" y="-112" type="curve" smooth="yes"/>
      <point x="48" y="-119"/>
      <point x="44" y="-124"/>
      <point x="44" y="-129" type="curve" smooth="yes"/>
      <point x="44" y="-135"/>
      <point x="50" y="-137"/>
      <point x="58" y="-137" type="curve" smooth="yes"/>
      <point x="181" y="-137" type="line" smooth="yes"/>
      <point x="274" y="-137"/>
      <point x="308" y="-88"/>
      <point x="308" y="-2" type="curve" smooth="yes"/>
      <point x="308" y="36"/>
      <point x="300" y="83"/>
      <point x="300" y="129" type="curve" smooth="yes"/>
      <point x="300" y="168"/>
      <point x="308" y="201"/>
      <point x="345" y="216" type="curve" smooth="yes"/>
      <point x="350" y="218"/>
      <point x="356" y="223"/>
      <point x="356" y="230" type="curve" smooth="yes"/>
      <point x="356" y="326" type="line" smooth="yes"/>
      <point x="356" y="333"/>
      <point x="350" y="338"/>
      <point x="345" y="340" type="curve" smooth="yes"/>
      <point x="308" y="355"/>
      <point x="300" y="389"/>
      <point x="300" y="427" type="curve" smooth="yes"/>
      <point x="300" y="473"/>
      <point x="307" y="520"/>
      <point x="307" y="559" type="curve" smooth="yes"/>
      <point x="307" y="646"/>
      <point x="274" y="694"/>
      <point x="180" y="694" type="curve"/>
      <point x="130" y="694" type="line" smooth="yes"/>
      <point x="113" y="694"/>
      <point x="104" y="691"/>
      <point x="94" y="682" type="curve" smooth="yes"/>
      <point x="81" y="670"/>
      <point x="67" y="658"/>
      <point x="56" y="646" type="curve" smooth="yes"/>
      <point x="50" y="639"/>
      <point x="45" y="633"/>
      <point x="45" y="632" type="curve" smooth="yes"/>
      <point x="45" y="626"/>
      <point x="50" y="625"/>
      <point x="59" y="625" type="curve" smooth="yes"/>
    </contour>
  </outline>
</glyph>
<glyph name="sterling" format="1">
  <advance width="568"/>
  <unicode hex="00A3"/>
  <outline>
    <contour>
      <point x="471" y="743" type="curve" smooth="yes"/>
      <point x="442" y="762"/>
      <point x="404" y="779"/>
      <point x="352" y="779" type="curve" smooth="yes"/>
      <point x="304" y="779"/>
      <point x="261" y="761"/>
      <point x="223" y="731" type="curve" smooth="yes"/>
      <point x="179" y="696"/>
      <point x="140" y="651"/>
      <point x="121" y="614" type="curve" smooth="yes"/>
      <point x="109" y="592"/>
      <point x="98" y="567"/>
      <point x="98" y="532" type="curve" smooth="yes"/>
      <point x="98" y="520"/>
      <point x="100" y="503"/>
      <point x="114" y="452" type="curve" smooth="yes"/>
      <point x="114" y="451"/>
      <point x="116" y="446"/>
      <point x="116" y="443" type="curve" smooth="yes"/>
      <point x="116" y="433"/>
      <point x="58" y="374"/>
      <point x="58" y="354" type="curve" smooth="yes"/>
      <point x="58" y="348"/>
      <point x="62" y="345"/>
      <point x="68" y="345" type="curve"/>
      <point x="132" y="345" type="line"/>
      <point x="145" y="345"/>
      <point x="157" y="270"/>
      <point x="161" y="244" type="curve" smooth="yes"/>
      <point x="164" y="226"/>
      <point x="166" y="209"/>
      <point x="166" y="197" type="curve" smooth="yes"/>
      <point x="166" y="150"/>
      <point x="122" y="138"/>
      <point x="100" y="114" type="curve" smooth="yes"/>
      <point x="74" y="86"/>
      <point x="49" y="18"/>
      <point x="49" y="15" type="curve" smooth="yes"/>
      <point x="49" y="6"/>
      <point x="54" y="2"/>
      <point x="61" y="2" type="curve" smooth="yes"/>
      <point x="83" y="2"/>
      <point x="118" y="7"/>
      <point x="142" y="7" type="curve" smooth="yes"/>
      <point x="203" y="7"/>
      <point x="288" y="-16"/>
      <point x="351" y="-16" type="curve" smooth="yes"/>
      <point x="411" y="-16"/>
      <point x="453" y="4"/>
      <point x="463" y="18" type="curve" smooth="yes"/>
      <point x="484" y="47"/>
      <point x="512" y="91"/>
      <point x="531" y="129" type="curve" smooth="yes"/>
      <point x="534" y="135"/>
      <point x="534" y="139"/>
      <point x="534" y="143" type="curve" smooth="yes"/>
      <point x="534" y="147"/>
      <point x="532" y="149"/>
      <point x="527" y="149" type="curve" smooth="yes"/>
      <point x="521" y="149"/>
      <point x="483" y="117"/>
      <point x="402" y="117" type="curve" smooth="yes"/>
      <point x="374" y="117"/>
      <point x="241" y="136"/>
      <point x="241" y="137" type="curve" smooth="yes"/>
      <point x="241" y="151"/>
      <point x="282" y="215"/>
      <point x="282" y="260" type="curve" smooth="yes"/>
      <point x="282" y="285"/>
      <point x="268" y="339"/>
      <point x="268" y="341" type="curve" smooth="yes"/>
      <point x="268" y="344"/>
      <point x="270" y="346"/>
      <point x="273" y="346" type="curve" smooth="yes"/>
      <point x="341" y="349" type="line" smooth="yes"/>
      <point x="361" y="350"/>
      <point x="380" y="357"/>
      <point x="396" y="370" type="curve" smooth="yes"/>
      <point x="417" y="387"/>
      <point x="432" y="403"/>
      <point x="452" y="426" type="curve" smooth="yes"/>
      <point x="455" y="430"/>
      <point x="459" y="436"/>
      <point x="459" y="440" type="curve" smooth="yes"/>
      <point x="459" y="447"/>
      <point x="452" y="451"/>
      <point x="443" y="451" type="curve" smooth="yes"/>
      <point x="251" y="451" type="line" smooth="yes"/>
      <point x="250" y="451"/>
      <point x="244" y="451"/>
      <point x="243" y="456" type="curve" smooth="yes"/>
      <point x="243" y="456"/>
      <point x="214" y="557"/>
      <point x="214" y="595" type="curve" smooth="yes"/>
      <point x="214" y="633"/>
      <point x="238" y="662"/>
      <point x="280" y="662" type="curve" smooth="yes"/>
      <point x="312" y="662"/>
      <point x="341" y="653"/>
      <point x="391" y="628" type="curve" smooth="yes"/>
      <point x="397" y="625"/>
      <point x="402" y="624"/>
      <point x="406" y="624" type="curve" smooth="yes"/>
      <point x="411" y="624"/>
      <point x="415" y="627"/>
      <point x="421" y="635" type="curve" smooth="yes"/>
      <point x="440" y="661"/>
      <point x="470" y="705"/>
      <point x="474" y="712" type="curve" smooth="yes"/>
      <point x="478" y="719"/>
      <point x="479" y="724"/>
      <point x="479" y="728" type="curve" smooth="yes"/>
      <point x="479" y="733"/>
      <point x="478" y="738"/>
    </contour>
  </outline>
</glyph>
<glyph name="currency" format="1">
  <advance width="640"/>
  <unicode hex="00A4"/>
  <outline>
    <contour>
      <point x="532" y="440" type="curve" smooth="yes"/>
      <point x="526" y="449"/>
      <point x="520" y="459"/>
      <point x="528" y="467" type="curve" smooth="yes"/>
      <point x="568" y="508"/>
      <point x="605" y="544"/>
      <point x="605" y="544" type="curve" smooth="yes"/>
      <point x="609" y="549"/>
      <point x="611" y="553"/>
      <point x="611" y="556" type="curve" smooth="yes"/>
      <point x="611" y="561"/>
      <point x="609" y="564"/>
      <point x="606" y="568" type="curve" smooth="yes"/>
      <point x="568" y="606" type="line" smooth="yes"/>
      <point x="563" y="611"/>
      <point x="559" y="613"/>
      <point x="557" y="613" type="curve" smooth="yes"/>
      <point x="552" y="613"/>
      <point x="549" y="611"/>
      <point x="547" y="607" type="curve" smooth="yes"/>
      <point x="547" y="607"/>
      <point x="515" y="575"/>
      <point x="472" y="525" type="curve" smooth="yes"/>
      <point x="464" y="517"/>
      <point x="457" y="523"/>
      <point x="446" y="528" type="curve" smooth="yes"/>
      <point x="415" y="546"/>
      <point x="374" y="555"/>
      <point x="325" y="555" type="curve" smooth="yes"/>
      <point x="279" y="555"/>
      <point x="236" y="542"/>
      <point x="206" y="521" type="curve" smooth="yes"/>
      <point x="196" y="513"/>
      <point x="191" y="512"/>
      <point x="183" y="521" type="curve" smooth="yes"/>
      <point x="138" y="569"/>
      <point x="111" y="601"/>
      <point x="111" y="601" type="curve" smooth="yes"/>
      <point x="108" y="605"/>
      <point x="103" y="607"/>
      <point x="101" y="607" type="curve" smooth="yes"/>
      <point x="96" y="607"/>
      <point x="92" y="605"/>
      <point x="88" y="601" type="curve" smooth="yes"/>
      <point x="52" y="563" type="line" smooth="yes"/>
      <point x="48" y="557"/>
      <point x="46" y="553"/>
      <point x="46" y="550" type="curve" smooth="yes"/>
      <point x="46" y="546"/>
      <point x="48" y="542"/>
      <point x="50" y="538" type="curve" smooth="yes"/>
      <point x="50" y="538"/>
      <point x="78" y="511"/>
      <point x="127" y="462" type="curve" smooth="yes"/>
      <point x="135" y="455"/>
      <point x="134" y="447"/>
      <point x="127" y="438" type="curve" smooth="yes"/>
      <point x="105" y="403"/>
      <point x="94" y="357"/>
      <point x="94" y="315" type="curve" smooth="yes"/>
      <point x="94" y="264"/>
      <point x="106" y="218"/>
      <point x="121" y="188" type="curve" smooth="yes"/>
      <point x="126" y="178"/>
      <point x="129" y="171"/>
      <point x="121" y="163" type="curve" smooth="yes"/>
      <point x="68" y="109"/>
      <point x="35" y="79"/>
      <point x="35" y="79" type="curve" smooth="yes"/>
      <point x="31" y="75"/>
      <point x="29" y="71"/>
      <point x="29" y="68" type="curve" smooth="yes"/>
      <point x="29" y="63"/>
      <point x="31" y="61"/>
      <point x="35" y="56" type="curve" smooth="yes"/>
      <point x="73" y="17" type="line" smooth="yes"/>
      <point x="75" y="14"/>
      <point x="78" y="12"/>
      <point x="83" y="12" type="curve" smooth="yes"/>
      <point x="86" y="12"/>
      <point x="90" y="14"/>
      <point x="95" y="19" type="curve" smooth="yes"/>
      <point x="95" y="19"/>
      <point x="127" y="49"/>
      <point x="177" y="105" type="curve" smooth="yes"/>
      <point x="184" y="113"/>
      <point x="191" y="110"/>
      <point x="200" y="105" type="curve" smooth="yes"/>
      <point x="232" y="87"/>
      <point x="277" y="78"/>
      <point x="317" y="78" type="curve" smooth="yes"/>
      <point x="366" y="78"/>
      <point x="411" y="91"/>
      <point x="442" y="112" type="curve" smooth="yes"/>
      <point x="450" y="118"/>
      <point x="457" y="121"/>
      <point x="465" y="112" type="curve" smooth="yes"/>
      <point x="512" y="63"/>
      <point x="543" y="30"/>
      <point x="543" y="30" type="curve" smooth="yes"/>
      <point x="547" y="24"/>
      <point x="551" y="23"/>
      <point x="554" y="23" type="curve" smooth="yes"/>
      <point x="558" y="23"/>
      <point x="563" y="26"/>
      <point x="566" y="30" type="curve" smooth="yes"/>
      <point x="604" y="67" type="line" smooth="yes"/>
      <point x="609" y="71"/>
      <point x="610" y="76"/>
      <point x="610" y="80" type="curve" smooth="yes"/>
      <point x="610" y="84"/>
      <point x="608" y="87"/>
      <point x="604" y="91" type="curve" smooth="yes"/>
      <point x="604" y="91"/>
      <point x="576" y="119"/>
      <point x="526" y="168" type="curve" smooth="yes"/>
      <point x="518" y="176"/>
      <point x="519" y="183"/>
      <point x="526" y="193" type="curve" smooth="yes"/>
      <point x="536" y="206"/>
      <point x="541" y="220"/>
      <point x="546" y="232" type="curve" smooth="yes"/>
      <point x="555" y="257"/>
      <point x="561" y="287"/>
      <point x="561" y="316" type="curve" smooth="yes"/>
      <point x="561" y="357"/>
      <point x="556" y="407"/>
    </contour>
    <contour>
      <point x="356" y="171" type="curve" smooth="yes"/>
      <point x="247" y="171"/>
      <point x="184" y="213"/>
      <point x="184" y="324" type="curve" smooth="yes"/>
      <point x="184" y="365"/>
      <point x="186" y="378"/>
      <point x="191" y="396" type="curve" smooth="yes"/>
      <point x="201" y="431"/>
      <point x="231" y="461"/>
      <point x="293" y="461" type="curve" smooth="yes"/>
      <point x="435" y="461"/>
      <point x="471" y="375"/>
      <point x="471" y="289" type="curve" smooth="yes"/>
      <point x="471" y="177"/>
      <point x="403" y="171"/>
    </contour>
  </outline>
</glyph>
<glyph name="section" format="1">
  <advance width="438"/>
  <unicode hex="00A7"/>
  <outline>
    <contour>
      <point x="74" y="46" type="curve" smooth="yes"/>
      <point x="98" y="28"/>
      <point x="162" y="-3"/>
      <point x="216" y="0" type="curve" smooth="yes"/>
      <point x="281" y="4"/>
      <point x="363" y="93"/>
      <point x="361" y="145" type="curve" smooth="yes"/>
      <point x="359" y="196"/>
      <point x="322" y="207"/>
      <point x="322" y="216" type="curve" smooth="yes"/>
      <point x="322" y="221"/>
      <point x="340" y="234"/>
      <point x="354" y="252" type="curve" smooth="yes"/>
      <point x="367" y="270"/>
      <point x="388" y="305"/>
      <point x="388" y="335" type="curve" smooth="yes"/>
      <point x="388" y="403"/>
      <point x="335" y="450"/>
      <point x="219" y="513" type="curve" smooth="yes"/>
      <point x="147" y="553"/>
      <point x="140" y="577"/>
      <point x="140" y="598" type="curve" smooth="yes"/>
      <point x="140" y="613"/>
      <point x="156" y="630"/>
      <point x="173" y="630" type="curve" smooth="yes"/>
      <point x="210" y="630"/>
      <point x="255" y="595"/>
      <point x="284" y="568" type="curve" smooth="yes"/>
      <point x="295" y="557"/>
      <point x="299" y="558"/>
      <point x="307" y="558" type="curve" smooth="yes"/>
      <point x="314" y="558"/>
      <point x="341" y="594"/>
      <point x="349" y="610" type="curve" smooth="yes"/>
      <point x="357" y="626"/>
      <point x="353" y="644"/>
      <point x="331" y="656" type="curve" smooth="yes"/>
      <point x="304" y="670"/>
      <point x="270" y="692"/>
      <point x="205" y="692" type="curve" smooth="yes"/>
      <point x="122" y="692"/>
      <point x="65" y="627"/>
      <point x="65" y="559" type="curve" smooth="yes"/>
      <point x="65" y="508"/>
      <point x="109" y="491"/>
      <point x="109" y="481" type="curve" smooth="yes"/>
      <point x="109" y="477"/>
      <point x="93" y="465"/>
      <point x="82" y="451" type="curve" smooth="yes"/>
      <point x="67" y="432"/>
      <point x="50" y="401"/>
      <point x="50" y="371" type="curve" smooth="yes"/>
      <point x="50" y="303"/>
      <point x="112" y="255"/>
      <point x="219" y="188" type="curve" smooth="yes"/>
      <point x="284" y="149"/>
      <point x="288" y="135"/>
      <point x="288" y="113" type="curve" smooth="yes"/>
      <point x="288" y="101"/>
      <point x="270" y="71"/>
      <point x="252" y="71" type="curve" smooth="yes"/>
      <point x="213" y="71"/>
      <point x="158" y="104"/>
      <point x="128" y="130" type="curve" smooth="yes"/>
      <point x="116" y="140"/>
      <point x="113" y="139"/>
      <point x="105" y="139" type="curve" smooth="yes"/>
      <point x="98" y="139"/>
      <point x="70" y="100"/>
      <point x="62" y="83" type="curve" smooth="yes"/>
      <point x="54" y="67"/>
      <point x="55" y="61"/>
    </contour>
    <contour>
      <point x="143" y="455" type="curve"/>
      <point x="153" y="455"/>
      <point x="164" y="444"/>
      <point x="180" y="434" type="curve" smooth="yes"/>
      <point x="230" y="402"/>
      <point x="312" y="359"/>
      <point x="312" y="306" type="curve" smooth="yes"/>
      <point x="312" y="280"/>
      <point x="299" y="251"/>
      <point x="292" y="251" type="curve" smooth="yes"/>
      <point x="284" y="251"/>
      <point x="276" y="260"/>
      <point x="262" y="270" type="curve" smooth="yes"/>
      <point x="223" y="295"/>
      <point x="122" y="355"/>
      <point x="122" y="404" type="curve" smooth="yes"/>
      <point x="122" y="433"/>
      <point x="136" y="455"/>
    </contour>
  </outline>
</glyph>
<glyph name="guillemotleft" format="1">
  <advance width="404"/>
  <unicode hex="00AB"/>
  <outline>
    <contour>
      <point x="85" y="363" type="curve" smooth="yes"/>
      <point x="70" y="343"/>
      <point x="40" y="301"/>
      <point x="28" y="276" type="curve" smooth="yes"/>
      <point x="26" y="272"/>
      <point x="24" y="266"/>
      <point x="24" y="261" type="curve" smooth="yes"/>
      <point x="24" y="255"/>
      <point x="26" y="249"/>
      <point x="33" y="238" type="curve" smooth="yes"/>
      <point x="48" y="213"/>
      <point x="93" y="164"/>
      <point x="120" y="141" type="curve" smooth="yes"/>
      <point x="125" y="137"/>
      <point x="128" y="136"/>
      <point x="130" y="136" type="curve" smooth="yes"/>
      <point x="133" y="136"/>
      <point x="137" y="138"/>
      <point x="141" y="143" type="curve" smooth="yes"/>
      <point x="160" y="166"/>
      <point x="170" y="182"/>
      <point x="183" y="203" type="curve" smooth="yes"/>
      <point x="189" y="213"/>
      <point x="188" y="216"/>
      <point x="189" y="218" type="curve"/>
      <point x="189" y="224"/>
      <point x="187" y="227"/>
      <point x="185" y="229" type="curve" smooth="yes"/>
      <point x="139" y="279" type="line" smooth="yes"/>
      <point x="136" y="282"/>
      <point x="134" y="288"/>
      <point x="134" y="291" type="curve" smooth="yes"/>
      <point x="134" y="294"/>
      <point x="135" y="298"/>
      <point x="137" y="303" type="curve" smooth="yes"/>
      <point x="178" y="391" type="line" smooth="yes"/>
      <point x="180" y="395"/>
      <point x="182" y="401"/>
      <point x="182" y="404" type="curve" smooth="yes"/>
      <point x="182" y="408"/>
      <point x="179" y="411"/>
      <point x="174" y="411" type="curve" smooth="yes"/>
      <point x="172" y="411"/>
      <point x="169" y="411"/>
      <point x="165" y="409" type="curve" smooth="yes"/>
      <point x="157" y="406"/>
      <point x="119" y="388"/>
      <point x="114" y="385" type="curve" smooth="yes"/>
      <point x="107" y="381"/>
      <point x="94" y="375"/>
    </contour>
    <contour>
      <point x="274" y="363" type="curve" smooth="yes"/>
      <point x="259" y="343"/>
      <point x="229" y="301"/>
      <point x="217" y="276" type="curve" smooth="yes"/>
      <point x="215" y="272"/>
      <point x="213" y="266"/>
      <point x="213" y="261" type="curve" smooth="yes"/>
      <point x="213" y="255"/>
      <point x="215" y="249"/>
      <point x="222" y="238" type="curve" smooth="yes"/>
      <point x="237" y="213"/>
      <point x="282" y="164"/>
      <point x="309" y="141" type="curve" smooth="yes"/>
      <point x="314" y="137"/>
      <point x="317" y="136"/>
      <point x="319" y="136" type="curve" smooth="yes"/>
      <point x="322" y="136"/>
      <point x="326" y="138"/>
      <point x="330" y="143" type="curve" smooth="yes"/>
      <point x="349" y="166"/>
      <point x="359" y="182"/>
      <point x="372" y="203" type="curve" smooth="yes"/>
      <point x="378" y="213"/>
      <point x="377" y="216"/>
      <point x="378" y="218" type="curve"/>
      <point x="378" y="224"/>
      <point x="376" y="227"/>
      <point x="374" y="229" type="curve" smooth="yes"/>
      <point x="328" y="279" type="line" smooth="yes"/>
      <point x="325" y="282"/>
      <point x="323" y="288"/>
      <point x="323" y="291" type="curve" smooth="yes"/>
      <point x="323" y="294"/>
      <point x="324" y="298"/>
      <point x="326" y="303" type="curve" smooth="yes"/>
      <point x="367" y="391" type="line" smooth="yes"/>
      <point x="369" y="395"/>
      <point x="371" y="401"/>
      <point x="371" y="404" type="curve" smooth="yes"/>
      <point x="371" y="408"/>
      <point x="368" y="411"/>
      <point x="363" y="411" type="curve" smooth="yes"/>
      <point x="361" y="411"/>
      <point x="358" y="411"/>
      <point x="354" y="409" type="curve" smooth="yes"/>
      <point x="346" y="406"/>
      <point x="308" y="388"/>
      <point x="303" y="385" type="curve" smooth="yes"/>
      <point x="296" y="381"/>
      <point x="283" y="375"/>
    </contour>
  </outline>
</glyph>
<glyph name="paragraph" format="1">
  <advance width="596"/>
  <unicode hex="00B6"/>
  <outline>
    <contour>
      <point x="283" y="261" type="curve"/>
      <point x="283" y="250"/>
      <point x="277" y="247"/>
      <point x="273" y="247" type="curve"/>
      <point x="266" y="247"/>
      <point x="252" y="248"/>
      <point x="244" y="249" type="curve"/>
      <point x="185" y="257"/>
      <point x="152" y="292"/>
      <point x="152" y="341" type="curve"/>
      <point x="152" y="389"/>
      <point x="179" y="423"/>
      <point x="243" y="423" type="curve"/>
      <point x="267" y="423"/>
      <point x="275" y="414"/>
      <point x="276" y="395" type="curve"/>
      <point x="278" y="369"/>
      <point x="283" y="289"/>
    </contour>
    <contour>
      <point x="373" y="421" type="curve"/>
      <point x="392" y="421"/>
      <point x="402" y="414"/>
      <point x="402" y="398" type="curve"/>
      <point x="406" y="315"/>
      <point x="414" y="14"/>
      <point x="416" y="-47" type="curve"/>
      <point x="416" y="-55"/>
      <point x="420" y="-60"/>
      <point x="426" y="-60" type="curve"/>
      <point x="430" y="-60"/>
      <point x="436" y="-57"/>
      <point x="443" y="-49" type="curve"/>
      <point x="452" y="-37"/>
      <point x="465" y="-17"/>
      <point x="472" y="-1" type="curve"/>
      <point x="478" y="13"/>
      <point x="479" y="27"/>
      <point x="479" y="43" type="curve"/>
      <point x="479" y="115"/>
      <point x="472" y="265"/>
      <point x="472" y="386" type="curve"/>
      <point x="472" y="411"/>
      <point x="476" y="422"/>
      <point x="499" y="422" type="curve"/>
      <point x="523" y="422"/>
      <point x="533" y="430"/>
      <point x="543" y="447" type="curve"/>
      <point x="552" y="463"/>
      <point x="560" y="485"/>
      <point x="569" y="507" type="curve"/>
      <point x="574" y="519"/>
      <point x="576" y="531"/>
      <point x="576" y="536" type="curve"/>
      <point x="576" y="549"/>
      <point x="569" y="552"/>
      <point x="553" y="552" type="curve"/>
      <point x="259" y="552" type="line" smooth="yes"/>
      <point x="101" y="552"/>
      <point x="46" y="465"/>
      <point x="46" y="382" type="curve"/>
      <point x="46" y="341"/>
      <point x="57" y="297"/>
      <point x="83" y="264" type="curve"/>
      <point x="133" y="200"/>
      <point x="224" y="183"/>
      <point x="275" y="178" type="curve"/>
      <point x="282" y="177"/>
      <point x="286" y="173"/>
      <point x="286" y="167" type="curve"/>
      <point x="290" y="82"/>
      <point x="291" y="14"/>
      <point x="293" y="-49" type="curve"/>
      <point x="293" y="-57"/>
      <point x="296" y="-62"/>
      <point x="303" y="-62" type="curve"/>
      <point x="309" y="-62"/>
      <point x="314" y="-58"/>
      <point x="321" y="-50" type="curve"/>
      <point x="332" y="-37"/>
      <point x="342" y="-19"/>
      <point x="349" y="-3" type="curve"/>
      <point x="357" y="15"/>
      <point x="358" y="28"/>
      <point x="358" y="48" type="curve"/>
      <point x="358" y="128"/>
      <point x="351" y="322"/>
      <point x="348" y="395" type="curve"/>
      <point x="347" y="416"/>
      <point x="355" y="421"/>
    </contour>
  </outline>
</glyph>
<glyph name="uni05A6" format="1">
  <advance width="0"/>
  <unicode hex="05A6"/>
  <outline>
    <contour>
      <point x="164" y="-292" type="curve" smooth="yes"/>
      <point x="242" y="-259"/>
      <point x="268" y="-185"/>
      <point x="268" y="-92" type="curve" smooth="yes"/>
      <point x="268" y="-80"/>
      <point x="262" y="-77"/>
      <point x="253" y="-77" type="curve" smooth="yes"/>
      <point x="229" y="-77" type="line" smooth="yes"/>
      <point x="220" y="-77"/>
      <point x="215" y="-80"/>
      <point x="215" y="-92" type="curve" smooth="yes"/>
      <point x="215" y="-175"/>
      <point x="192" y="-222"/>
      <point x="138" y="-241" type="curve" smooth="yes"/>
      <point x="132" y="-243"/>
      <point x="129" y="-247"/>
      <point x="129" y="-251" type="curve" smooth="yes"/>
      <point x="129" y="-254"/>
      <point x="131" y="-259"/>
      <point x="133" y="-262" type="curve"/>
      <point x="143" y="-287" type="line"/>
      <point x="146" y="-292"/>
      <point x="150" y="-295"/>
      <point x="155" y="-295" type="curve" smooth="yes"/>
      <point x="158" y="-295"/>
      <point x="160" y="-294"/>
    </contour>
    <contour>
      <point x="55" y="-276" type="curve" smooth="yes"/>
      <point x="143" y="-247"/>
      <point x="159" y="-185"/>
      <point x="159" y="-92" type="curve" smooth="yes"/>
      <point x="159" y="-80"/>
      <point x="153" y="-77"/>
      <point x="144" y="-77" type="curve" smooth="yes"/>
      <point x="120" y="-77" type="line" smooth="yes"/>
      <point x="111" y="-77"/>
      <point x="106" y="-80"/>
      <point x="106" y="-92" type="curve" smooth="yes"/>
      <point x="106" y="-175"/>
      <point x="92" y="-205"/>
      <point x="29" y="-225" type="curve" smooth="yes"/>
      <point x="23" y="-227"/>
      <point x="20" y="-231"/>
      <point x="20" y="-235" type="curve" smooth="yes"/>
      <point x="20" y="-238"/>
      <point x="22" y="-243"/>
      <point x="24" y="-246" type="curve"/>
      <point x="34" y="-271" type="line"/>
      <point x="37" y="-276"/>
      <point x="41" y="-279"/>
      <point x="46" y="-279" type="curve" smooth="yes"/>
      <point x="49" y="-279"/>
      <point x="51" y="-277"/>
    </contour>
  </outline>
</glyph>
<glyph name="segolhebrew" format="1">
  <advance width="0"/>
  <unicode hex="05B6"/>
  <outline>
    <contour>
      <point x="131" y="-107" type="curve" smooth="yes"/>
      <point x="131" y="-130"/>
      <point x="113" y="-148"/>
      <point x="91" y="-148" type="curve" smooth="yes"/>
      <point x="68" y="-148"/>
      <point x="50" y="-130"/>
      <point x="50" y="-107" type="curve" smooth="yes"/>
      <point x="50" y="-85"/>
      <point x="68" y="-66"/>
      <point x="91" y="-66" type="curve" smooth="yes"/>
      <point x="113" y="-66"/>
      <point x="131" y="-85"/>
    </contour>
    <contour>
      <point x="358" y="-107" type="curve" smooth="yes"/>
      <point x="358" y="-130"/>
      <point x="340" y="-148"/>
      <point x="318" y="-148" type="curve" smooth="yes"/>
      <point x="295" y="-148"/>
      <point x="277" y="-130"/>
      <point x="277" y="-107" type="curve" smooth="yes"/>
      <point x="277" y="-85"/>
      <point x="295" y="-66"/>
      <point x="318" y="-66" type="curve" smooth="yes"/>
      <point x="340" y="-66"/>
      <point x="358" y="-85"/>
    </contour>
    <contour>
      <point x="245" y="-230" type="curve" smooth="yes"/>
      <point x="245" y="-253"/>
      <point x="226" y="-271"/>
      <point x="204" y="-271" type="curve" smooth="yes"/>
      <point x="181" y="-271"/>
      <point x="163" y="-253"/>
      <point x="163" y="-230" type="curve" smooth="yes"/>
      <point x="163" y="-208"/>
      <point x="181" y="-189"/>
      <point x="204" y="-189" type="curve" smooth="yes"/>
      <point x="226" y="-189"/>
      <point x="245" y="-208"/>
    </contour>
  </outline>
</glyph>
<glyph name="bethebrew" format="1">
  <advance width="567"/>
  <unicode hex="05D1"/>
  <outline>
    <contour>
      <point x="40" y="24" type="curve" smooth="yes"/>
      <point x="37" y="17"/>
      <point x="36" y="13"/>
      <point x="36" y="11" type="curve" smooth="yes"/>
      <point x="36" y="4"/>
      <point x="42" y="0"/>
      <point x="50" y="0" type="curve" smooth="yes"/>
      <point x="454" y="0" type="line" smooth="yes"/>
      <point x="467" y="0"/>
      <point x="477" y="7"/>
      <point x="486" y="23" type="curve" smooth="yes"/>
      <point x="502" y="51"/>
      <point x="521" y="87"/>
      <point x="527" y="103" type="curve" smooth="yes"/>
      <point x="530" y="112"/>
      <point x="531" y="114"/>
      <point x="531" y="119" type="curve" smooth="yes"/>
      <point x="531" y="126"/>
      <point x="526" y="131"/>
      <point x="517" y="131" type="curve"/>
      <point x="488" y="131" type="line" smooth="yes"/>
      <point x="465" y="131"/>
      <point x="456" y="144"/>
      <point x="454" y="192" type="curve" smooth="yes"/>
      <point x="451" y="267"/>
      <point x="450" y="338"/>
      <point x="450" y="409" type="curve" smooth="yes"/>
      <point x="450" y="483"/>
      <point x="429" y="552"/>
      <point x="325" y="552" type="curve" smooth="yes"/>
      <point x="188" y="552" type="line" smooth="yes"/>
      <point x="171" y="552"/>
      <point x="165" y="568"/>
      <point x="161" y="582" type="curve" smooth="yes"/>
      <point x="158" y="593"/>
      <point x="154" y="603"/>
      <point x="146" y="603" type="curve" smooth="yes"/>
      <point x="139" y="603"/>
      <point x="132" y="594"/>
      <point x="124" y="583" type="curve" smooth="yes"/>
      <point x="104" y="555"/>
      <point x="75" y="507"/>
      <point x="56" y="474" type="curve" smooth="yes"/>
      <point x="47" y="458"/>
      <point x="42" y="447"/>
      <point x="42" y="443" type="curve" smooth="yes"/>
      <point x="42" y="424"/>
      <point x="59" y="421"/>
      <point x="75" y="421" type="curve" smooth="yes"/>
      <point x="298" y="421" type="line" smooth="yes"/>
      <point x="329" y="421"/>
      <point x="346" y="404"/>
      <point x="350" y="374" type="curve" smooth="yes"/>
      <point x="353" y="348"/>
      <point x="359" y="192"/>
      <point x="359" y="147" type="curve" smooth="yes"/>
      <point x="359" y="139"/>
      <point x="356" y="131"/>
      <point x="342" y="131" type="curve" smooth="yes"/>
      <point x="112" y="131" type="line" smooth="yes"/>
      <point x="101" y="131"/>
      <point x="92" y="125"/>
      <point x="87" y="117" type="curve" smooth="yes"/>
      <point x="68" y="87"/>
      <point x="60" y="70"/>
    </contour>
  </outline>
</glyph>
<glyph name="gimelhebrew" format="1">
  <advance width="407"/>
  <unicode hex="05D2"/>
  <outline>
    <contour>
      <point x="60" y="98" type="curve" smooth="yes"/>
      <point x="51" y="74"/>
      <point x="29" y="-6"/>
      <point x="29" y="-11" type="curve" smooth="yes"/>
      <point x="29" y="-15"/>
      <point x="33" y="-19"/>
      <point x="37" y="-19" type="curve" smooth="yes"/>
      <point x="63" y="-19"/>
      <point x="129" y="15"/>
      <point x="156" y="36" type="curve" smooth="yes"/>
      <point x="196" y="67"/>
      <point x="226" y="105"/>
      <point x="239" y="153" type="curve" smooth="yes"/>
      <point x="241" y="159"/>
      <point x="244" y="160"/>
      <point x="246" y="160" type="curve" smooth="yes"/>
      <point x="248" y="160"/>
      <point x="250" y="158"/>
      <point x="250" y="156" type="curve" smooth="yes"/>
      <point x="254" y="134"/>
      <point x="268" y="27"/>
      <point x="282" y="-16" type="curve" smooth="yes"/>
      <point x="284" y="-22"/>
      <point x="290" y="-26"/>
      <point x="292" y="-26" type="curve" smooth="yes"/>
      <point x="299" y="-26"/>
      <point x="303" y="-21"/>
      <point x="304" y="-19" type="curve" smooth="yes"/>
      <point x="314" y="-2"/>
      <point x="328" y="50"/>
      <point x="337" y="80" type="curve" smooth="yes"/>
      <point x="341" y="93"/>
      <point x="343" y="104"/>
      <point x="343" y="115" type="curve" smooth="yes"/>
      <point x="343" y="119"/>
      <point x="341" y="138"/>
      <point x="340" y="146" type="curve" smooth="yes"/>
      <point x="327" y="251"/>
      <point x="321" y="292"/>
      <point x="301" y="408" type="curve" smooth="yes"/>
      <point x="294" y="449"/>
      <point x="269" y="498"/>
      <point x="241" y="525" type="curve" smooth="yes"/>
      <point x="209" y="555"/>
      <point x="175" y="577"/>
      <point x="141" y="596" type="curve" smooth="yes"/>
      <point x="132" y="601"/>
      <point x="129" y="603"/>
      <point x="124" y="603" type="curve" smooth="yes"/>
      <point x="120" y="603"/>
      <point x="117" y="599"/>
      <point x="114" y="595" type="curve" smooth="yes"/>
      <point x="103" y="582"/>
      <point x="65" y="528"/>
      <point x="50" y="507" type="curve" smooth="yes"/>
      <point x="44" y="498"/>
      <point x="42" y="495"/>
      <point x="42" y="491" type="curve" smooth="yes"/>
      <point x="42" y="485"/>
      <point x="45" y="482"/>
      <point x="51" y="479" type="curve" smooth="yes"/>
      <point x="95" y="459"/>
      <point x="146" y="420"/>
      <point x="173" y="396" type="curve" smooth="yes"/>
      <point x="191" y="380"/>
      <point x="197" y="369"/>
      <point x="205" y="349" type="curve" smooth="yes"/>
      <point x="214" y="326"/>
      <point x="222" y="289"/>
      <point x="227" y="264" type="curve" smooth="yes"/>
      <point x="228" y="258"/>
      <point x="228" y="252"/>
      <point x="228" y="248" type="curve" smooth="yes"/>
      <point x="228" y="242"/>
      <point x="227" y="238"/>
      <point x="224" y="233" type="curve" smooth="yes"/>
      <point x="205" y="203"/>
      <point x="184" y="184"/>
      <point x="147" y="154" type="curve" smooth="yes"/>
      <point x="118" y="131"/>
      <point x="78" y="113"/>
      <point x="75" y="111" type="curve" smooth="yes"/>
      <point x="71" y="109"/>
      <point x="63" y="106"/>
    </contour>
  </outline>
</glyph>
<glyph name="dalethebrew" format="1">
  <advance width="567"/>
  <unicode hex="05D3"/>
  <outline>
    <contour>
      <point x="314" y="401" type="curve" smooth="yes"/>
      <point x="321" y="285"/>
      <point x="326" y="125"/>
      <point x="336" y="-6" type="curve" smooth="yes"/>
      <point x="337" y="-16"/>
      <point x="340" y="-25"/>
      <point x="348" y="-25" type="curve" smooth="yes"/>
      <point x="355" y="-25"/>
      <point x="364" y="-16"/>
      <point x="372" y="-3" type="curve" smooth="yes"/>
      <point x="388" y="24"/>
      <point x="403" y="51"/>
      <point x="413" y="71" type="curve" smooth="yes"/>
      <point x="423" y="93"/>
      <point x="423" y="103"/>
      <point x="423" y="125" type="curve" smooth="yes"/>
      <point x="422" y="199"/>
      <point x="415" y="272"/>
      <point x="415" y="396" type="curve" smooth="yes"/>
      <point x="415" y="407"/>
      <point x="419" y="421"/>
      <point x="432" y="421" type="curve" smooth="yes"/>
      <point x="449" y="421" type="line" smooth="yes"/>
      <point x="459" y="421"/>
      <point x="463" y="428"/>
      <point x="468" y="438" type="curve" smooth="yes"/>
      <point x="481" y="464"/>
      <point x="495" y="504"/>
      <point x="500" y="523" type="curve" smooth="yes"/>
      <point x="502" y="530"/>
      <point x="504" y="535"/>
      <point x="504" y="541" type="curve" smooth="yes"/>
      <point x="504" y="548"/>
      <point x="492" y="552"/>
      <point x="484" y="552" type="curve" smooth="yes"/>
      <point x="431" y="552" type="line" smooth="yes"/>
      <point x="412" y="552"/>
      <point x="412" y="574"/>
      <point x="410" y="588" type="curve" smooth="yes"/>
      <point x="409" y="597"/>
      <point x="405" y="603"/>
      <point x="398" y="603" type="curve" smooth="yes"/>
      <point x="366" y="603"/>
      <point x="326" y="552"/>
      <point x="317" y="552" type="curve" smooth="yes"/>
      <point x="181" y="552" type="line" smooth="yes"/>
      <point x="154" y="552"/>
      <point x="155" y="566"/>
      <point x="148" y="589" type="curve" smooth="yes"/>
      <point x="146" y="596"/>
      <point x="139" y="603"/>
      <point x="135" y="603" type="curve" smooth="yes"/>
      <point x="128" y="603"/>
      <point x="121" y="598"/>
      <point x="116" y="590" type="curve" smooth="yes"/>
      <point x="93" y="554"/>
      <point x="64" y="504"/>
      <point x="44" y="464" type="curve" smooth="yes"/>
      <point x="39" y="454"/>
      <point x="35" y="445"/>
      <point x="35" y="441" type="curve" smooth="yes"/>
      <point x="35" y="427"/>
      <point x="47" y="421"/>
      <point x="59" y="421" type="curve" smooth="yes"/>
      <point x="295" y="421" type="line" smooth="yes"/>
      <point x="304" y="421"/>
      <point x="313" y="415"/>
    </contour>
  </outline>
</glyph>
<glyph name="hehebrew" format="1">
  <advance width="726"/>
  <unicode hex="05D4"/>
  <outline>
    <contour>
      <point x="512" y="354" type="curve" smooth="yes"/>
      <point x="523" y="270"/>
      <point x="528" y="118"/>
      <point x="532" y="-6" type="curve" smooth="yes"/>
      <point x="532" y="-18"/>
      <point x="536" y="-25"/>
      <point x="543" y="-25" type="curve" smooth="yes"/>
      <point x="549" y="-25"/>
      <point x="554" y="-19"/>
      <point x="561" y="-10" type="curve" smooth="yes"/>
      <point x="576" y="10"/>
      <point x="596" y="43"/>
      <point x="609" y="66" type="curve" smooth="yes"/>
      <point x="619" y="82"/>
      <point x="620" y="99"/>
      <point x="620" y="115" type="curve" smooth="yes"/>
      <point x="620" y="210"/>
      <point x="616" y="292"/>
      <point x="614" y="358" type="curve" smooth="yes"/>
      <point x="610" y="479"/>
      <point x="575" y="552"/>
      <point x="491" y="552" type="curve" smooth="yes"/>
      <point x="224" y="552" type="line" smooth="yes"/>
      <point x="200" y="552"/>
      <point x="188" y="552"/>
      <point x="179" y="588" type="curve" smooth="yes"/>
      <point x="177" y="596"/>
      <point x="172" y="603"/>
      <point x="164" y="603" type="curve" smooth="yes"/>
      <point x="160" y="603"/>
      <point x="151" y="598"/>
      <point x="142" y="587" type="curve" smooth="yes"/>
      <point x="119" y="559"/>
      <point x="88" y="506"/>
      <point x="61" y="460" type="curve" smooth="yes"/>
      <point x="55" y="450"/>
      <point x="52" y="443"/>
      <point x="52" y="437" type="curve" smooth="yes"/>
      <point x="52" y="427"/>
      <point x="60" y="421"/>
      <point x="83" y="421" type="curve" smooth="yes"/>
      <point x="440" y="421" type="line" smooth="yes"/>
      <point x="497" y="421"/>
      <point x="509" y="377"/>
    </contour>
    <contour>
      <point x="125" y="230" type="curve" smooth="yes"/>
      <point x="125" y="191"/>
      <point x="134" y="60"/>
      <point x="142" y="-11" type="curve" smooth="yes"/>
      <point x="143" y="-18"/>
      <point x="145" y="-25"/>
      <point x="152" y="-25" type="curve" smooth="yes"/>
      <point x="155" y="-25"/>
      <point x="160" y="-23"/>
      <point x="166" y="-16" type="curve" smooth="yes"/>
      <point x="183" y="4"/>
      <point x="204" y="36"/>
      <point x="220" y="61" type="curve" smooth="yes"/>
      <point x="227" y="72"/>
      <point x="228" y="82"/>
      <point x="228" y="95" type="curve" smooth="yes"/>
      <point x="228" y="162"/>
      <point x="218" y="303"/>
      <point x="214" y="335" type="curve" smooth="yes"/>
      <point x="213" y="343"/>
      <point x="210" y="349"/>
      <point x="203" y="349" type="curve" smooth="yes"/>
      <point x="198" y="349"/>
      <point x="190" y="341"/>
      <point x="182" y="331" type="curve" smooth="yes"/>
      <point x="165" y="309"/>
      <point x="141" y="275"/>
      <point x="132" y="258" type="curve" smooth="yes"/>
      <point x="126" y="247"/>
      <point x="125" y="240"/>
    </contour>
  </outline>
</glyph>
<glyph name="zayinhebrew" format="1">
  <advance width="407"/>
  <unicode hex="05D6"/>
  <outline>
    <contour>
      <point x="118" y="255" type="curve" smooth="yes"/>
      <point x="139" y="197"/>
      <point x="178" y="95"/>
      <point x="233" y="-15" type="curve" smooth="yes"/>
      <point x="236" y="-21"/>
      <point x="240" y="-25"/>
      <point x="244" y="-25" type="curve" smooth="yes"/>
      <point x="247" y="-25"/>
      <point x="251" y="-21"/>
      <point x="254" y="-15" type="curve" smooth="yes"/>
      <point x="264" y="5"/>
      <point x="282" y="46"/>
      <point x="292" y="74" type="curve" smooth="yes"/>
      <point x="295" y="82"/>
      <point x="296" y="86"/>
      <point x="296" y="91" type="curve" smooth="yes"/>
      <point x="296" y="95"/>
      <point x="292" y="103"/>
      <point x="289" y="110" type="curve" smooth="yes"/>
      <point x="248" y="207"/>
      <point x="192" y="302"/>
      <point x="192" y="364" type="curve" smooth="yes"/>
      <point x="192" y="381"/>
      <point x="199" y="389"/>
      <point x="216" y="389" type="curve" smooth="yes"/>
      <point x="240" y="389"/>
      <point x="269" y="367"/>
      <point x="285" y="351" type="curve" smooth="yes"/>
      <point x="289" y="347"/>
      <point x="294" y="344"/>
      <point x="298" y="344" type="curve" smooth="yes"/>
      <point x="303" y="344"/>
      <point x="307" y="349"/>
      <point x="312" y="357" type="curve" smooth="yes"/>
      <point x="327" y="380"/>
      <point x="346" y="427"/>
      <point x="351" y="442" type="curve" smooth="yes"/>
      <point x="352" y="446"/>
      <point x="353" y="449"/>
      <point x="353" y="452" type="curve" smooth="yes"/>
      <point x="353" y="457"/>
      <point x="353" y="462"/>
      <point x="347" y="467" type="curve" smooth="yes"/>
      <point x="284" y="520"/>
      <point x="220" y="562"/>
      <point x="148" y="598" type="curve" smooth="yes"/>
      <point x="144" y="600"/>
      <point x="137" y="602"/>
      <point x="134" y="602" type="curve" smooth="yes"/>
      <point x="130" y="602"/>
      <point x="127" y="601"/>
      <point x="120" y="593" type="curve" smooth="yes"/>
      <point x="104" y="574"/>
      <point x="75" y="534"/>
      <point x="59" y="506" type="curve" smooth="yes"/>
      <point x="56" y="501"/>
      <point x="54" y="497"/>
      <point x="54" y="493" type="curve" smooth="yes"/>
      <point x="54" y="485"/>
      <point x="60" y="482"/>
      <point x="67" y="479" type="curve" smooth="yes"/>
      <point x="94" y="467"/>
      <point x="144" y="449"/>
      <point x="144" y="429" type="curve" smooth="yes"/>
      <point x="144" y="417"/>
      <point x="126" y="361"/>
      <point x="114" y="322" type="curve" smooth="yes"/>
      <point x="111" y="312"/>
      <point x="110" y="304"/>
      <point x="110" y="295" type="curve" smooth="yes"/>
      <point x="110" y="284"/>
      <point x="113" y="269"/>
    </contour>
  </outline>
</glyph>
<glyph name="hethebrew" format="1">
  <advance width="726"/>
  <unicode hex="05D7"/>
  <outline>
    <contour>
      <point x="136" y="-14" type="curve" smooth="yes"/>
      <point x="136" y="-19"/>
      <point x="139" y="-25"/>
      <point x="144" y="-25" type="curve" smooth="yes"/>
      <point x="151" y="-25"/>
      <point x="157" y="-21"/>
      <point x="163" y="-13" type="curve" smooth="yes"/>
      <point x="183" y="14"/>
      <point x="203" y="52"/>
      <point x="213" y="76" type="curve" smooth="yes"/>
      <point x="218" y="88"/>
      <point x="222" y="106"/>
      <point x="222" y="121" type="curve" smooth="yes"/>
      <point x="222" y="239"/>
      <point x="214" y="351"/>
      <point x="214" y="401" type="curve" smooth="yes"/>
      <point x="214" y="414"/>
      <point x="218" y="421"/>
      <point x="233" y="421" type="curve" smooth="yes"/>
      <point x="385" y="421" type="line" smooth="yes"/>
      <point x="492" y="421"/>
      <point x="534" y="335"/>
      <point x="543" y="269" type="curve" smooth="yes"/>
      <point x="555" y="180"/>
      <point x="564" y="41"/>
      <point x="569" y="-12" type="curve" smooth="yes"/>
      <point x="570" y="-23"/>
      <point x="574" y="-26"/>
      <point x="578" y="-26" type="curve" smooth="yes"/>
      <point x="583" y="-26"/>
      <point x="588" y="-23"/>
      <point x="593" y="-16" type="curve" smooth="yes"/>
      <point x="609" y="7"/>
      <point x="625" y="38"/>
      <point x="639" y="64" type="curve" smooth="yes"/>
      <point x="647" y="79"/>
      <point x="649" y="94"/>
      <point x="649" y="108" type="curve" smooth="yes"/>
      <point x="649" y="180"/>
      <point x="644" y="253"/>
      <point x="637" y="320" type="curve" smooth="yes"/>
      <point x="623" y="450"/>
      <point x="547" y="552"/>
      <point x="410" y="552" type="curve" smooth="yes"/>
      <point x="252" y="552" type="line" smooth="yes"/>
      <point x="232" y="552"/>
      <point x="216" y="554"/>
      <point x="208" y="583" type="curve" smooth="yes"/>
      <point x="204" y="597"/>
      <point x="198" y="602"/>
      <point x="189" y="602" type="curve" smooth="yes"/>
      <point x="181" y="602"/>
      <point x="173" y="593"/>
      <point x="170" y="589" type="curve" smooth="yes"/>
      <point x="132" y="538"/>
      <point x="114" y="512"/>
      <point x="95" y="478" type="curve" smooth="yes"/>
      <point x="91" y="472"/>
      <point x="90" y="466"/>
      <point x="90" y="460" type="curve" smooth="yes"/>
      <point x="90" y="453"/>
      <point x="92" y="445"/>
      <point x="94" y="434" type="curve" smooth="yes"/>
      <point x="119" y="316"/>
      <point x="128" y="158"/>
    </contour>
  </outline>
</glyph>
<glyph name="yodhebrew" format="1">
  <advance width="407"/>
  <unicode hex="05D9"/>
  <outline>
    <contour>
      <point x="159" y="171" type="curve" smooth="yes"/>
      <point x="157" y="167"/>
      <point x="151" y="156"/>
      <point x="151" y="152" type="curve" smooth="yes"/>
      <point x="151" y="147"/>
      <point x="155" y="145"/>
      <point x="158" y="145" type="curve" smooth="yes"/>
      <point x="162" y="145"/>
      <point x="170" y="148"/>
      <point x="178" y="152" type="curve" smooth="yes"/>
      <point x="198" y="163"/>
      <point x="225" y="181"/>
      <point x="242" y="194" type="curve" smooth="yes"/>
      <point x="260" y="208"/>
      <point x="270" y="216"/>
      <point x="286" y="240" type="curve" smooth="yes"/>
      <point x="315" y="284"/>
      <point x="350" y="345"/>
      <point x="350" y="390" type="curve" smooth="yes"/>
      <point x="350" y="419"/>
      <point x="341" y="446"/>
      <point x="319" y="470" type="curve" smooth="yes"/>
      <point x="283" y="510"/>
      <point x="202" y="570"/>
      <point x="150" y="600" type="curve" smooth="yes"/>
      <point x="148" y="601"/>
      <point x="146" y="602"/>
      <point x="142" y="602" type="curve" smooth="yes"/>
      <point x="139" y="602"/>
      <point x="135" y="600"/>
      <point x="128" y="593" type="curve" smooth="yes"/>
      <point x="110" y="575"/>
      <point x="67" y="512"/>
      <point x="57" y="496" type="curve" smooth="yes"/>
      <point x="54" y="492"/>
      <point x="52" y="487"/>
      <point x="52" y="484" type="curve" smooth="yes"/>
      <point x="52" y="480"/>
      <point x="54" y="476"/>
      <point x="59" y="472" type="curve" smooth="yes"/>
      <point x="93" y="448"/>
      <point x="167" y="406"/>
      <point x="201" y="371" type="curve" smooth="yes"/>
      <point x="219" y="352"/>
      <point x="223" y="331"/>
      <point x="223" y="314" type="curve" smooth="yes"/>
      <point x="223" y="279"/>
      <point x="180" y="211"/>
    </contour>
  </outline>
</glyph>
<glyph name="finalkafhebrew" format="1">
  <advance width="567"/>
  <unicode hex="05DA"/>
  <outline>
    <contour>
      <point x="314" y="395" type="curve"/>
      <point x="325" y="296"/>
      <point x="331" y="-82"/>
      <point x="340" y="-216" type="curve" smooth="yes"/>
      <point x="341" y="-224"/>
      <point x="344" y="-229"/>
      <point x="350" y="-229" type="curve" smooth="yes"/>
      <point x="355" y="-229"/>
      <point x="360" y="-224"/>
      <point x="367" y="-216" type="curve" smooth="yes"/>
      <point x="385" y="-196"/>
      <point x="411" y="-155"/>
      <point x="419" y="-138" type="curve" smooth="yes"/>
      <point x="426" y="-123"/>
      <point x="426" y="-111"/>
      <point x="426" y="-94" type="curve" smooth="yes"/>
      <point x="426" y="103"/>
      <point x="417" y="257"/>
      <point x="417" y="386" type="curve" smooth="yes"/>
      <point x="417" y="408"/>
      <point x="435" y="417"/>
      <point x="451" y="419" type="curve" smooth="yes"/>
      <point x="461" y="420"/>
      <point x="470" y="425"/>
      <point x="474" y="434" type="curve" smooth="yes"/>
      <point x="488" y="461"/>
      <point x="502" y="497"/>
      <point x="509" y="520" type="curve" smooth="yes"/>
      <point x="512" y="529"/>
      <point x="514" y="536"/>
      <point x="514" y="540" type="curve" smooth="yes"/>
      <point x="514" y="550"/>
      <point x="506" y="552"/>
      <point x="488" y="552" type="curve" smooth="yes"/>
      <point x="202" y="552" type="line" smooth="yes"/>
      <point x="175" y="552"/>
      <point x="168" y="570"/>
      <point x="163" y="584" type="curve" smooth="yes"/>
      <point x="159" y="596"/>
      <point x="156" y="603"/>
      <point x="147" y="603" type="curve" smooth="yes"/>
      <point x="143" y="603"/>
      <point x="138" y="600"/>
      <point x="130" y="589" type="curve" smooth="yes"/>
      <point x="108" y="558"/>
      <point x="77" y="504"/>
      <point x="57" y="471" type="curve" smooth="yes"/>
      <point x="51" y="461"/>
      <point x="44" y="447"/>
      <point x="44" y="443" type="curve" smooth="yes"/>
      <point x="44" y="424"/>
      <point x="61" y="421"/>
      <point x="76" y="421" type="curve" smooth="yes"/>
      <point x="283" y="421" type="line" smooth="yes"/>
      <point x="305" y="421"/>
      <point x="312" y="413"/>
    </contour>
  </outline>
</glyph>
<glyph name="lamedhebrew" format="1">
  <advance width="567"/>
  <unicode hex="05DC"/>
  <outline>
    <contour>
      <point x="156" y="106" type="curve" smooth="yes"/>
      <point x="143" y="85"/>
      <point x="105" y="5"/>
      <point x="105" y="-8" type="curve" smooth="yes"/>
      <point x="105" y="-16"/>
      <point x="109" y="-20"/>
      <point x="117" y="-20" type="curve" smooth="yes"/>
      <point x="142" y="-20"/>
      <point x="222" y="7"/>
      <point x="258" y="23" type="curve" smooth="yes"/>
      <point x="351" y="64"/>
      <point x="426" y="158"/>
      <point x="468" y="274" type="curve" smooth="yes"/>
      <point x="485" y="322"/>
      <point x="503" y="398"/>
      <point x="503" y="451" type="curve" smooth="yes"/>
      <point x="503" y="508"/>
      <point x="488" y="552"/>
      <point x="428" y="552" type="curve" smooth="yes"/>
      <point x="204" y="552" type="line" smooth="yes"/>
      <point x="156" y="552"/>
      <point x="155" y="560"/>
      <point x="155" y="649" type="curve" smooth="yes"/>
      <point x="155" y="685"/>
      <point x="149" y="723"/>
      <point x="141" y="746" type="curve" smooth="yes"/>
      <point x="136" y="761"/>
      <point x="128" y="768"/>
      <point x="122" y="768" type="curve" smooth="yes"/>
      <point x="117" y="768"/>
      <point x="112" y="764"/>
      <point x="104" y="755" type="curve" smooth="yes"/>
      <point x="83" y="732"/>
      <point x="49" y="688"/>
      <point x="42" y="677" type="curve" smooth="yes"/>
      <point x="39" y="672"/>
      <point x="37" y="667"/>
      <point x="37" y="663" type="curve" smooth="yes"/>
      <point x="37" y="657"/>
      <point x="40" y="646"/>
      <point x="45" y="633" type="curve" smooth="yes"/>
      <point x="55" y="607"/>
      <point x="64" y="571"/>
      <point x="64" y="544" type="curve" smooth="yes"/>
      <point x="64" y="439"/>
      <point x="78" y="421"/>
      <point x="137" y="421" type="curve" smooth="yes"/>
      <point x="346" y="421" type="line" smooth="yes"/>
      <point x="377" y="421"/>
      <point x="395" y="401"/>
      <point x="395" y="348" type="curve" smooth="yes"/>
      <point x="395" y="300"/>
      <point x="383" y="242"/>
      <point x="348" y="205" type="curve" smooth="yes"/>
      <point x="315" y="170"/>
      <point x="246" y="139"/>
      <point x="192" y="126" type="curve" smooth="yes"/>
      <point x="168" y="120"/>
      <point x="162" y="116"/>
    </contour>
  </outline>
</glyph>
<glyph name="finalmemhebrew" format="1">
  <advance width="726"/>
  <unicode hex="05DD"/>
  <outline>
    <contour>
      <point x="107" y="112" type="curve" smooth="yes"/>
      <point x="110" y="53"/>
      <point x="135" y="0"/>
      <point x="195" y="0" type="curve" smooth="yes"/>
      <point x="555" y="0" type="line" smooth="yes"/>
      <point x="569" y="0"/>
      <point x="576" y="1"/>
      <point x="582" y="10" type="curve" smooth="yes"/>
      <point x="601" y="37"/>
      <point x="624" y="89"/>
      <point x="637" y="133" type="curve" smooth="yes"/>
      <point x="643" y="153"/>
      <point x="647" y="175"/>
      <point x="647" y="227" type="curve" smooth="yes"/>
      <point x="646" y="286"/>
      <point x="641" y="384"/>
      <point x="636" y="436" type="curve" smooth="yes"/>
      <point x="629" y="511"/>
      <point x="583" y="552"/>
      <point x="484" y="552" type="curve" smooth="yes"/>
      <point x="212" y="552" type="line" smooth="yes"/>
      <point x="192" y="552"/>
      <point x="183" y="558"/>
      <point x="177" y="587" type="curve" smooth="yes"/>
      <point x="175" y="597"/>
      <point x="167" y="603"/>
      <point x="159" y="603" type="curve" smooth="yes"/>
      <point x="154" y="603"/>
      <point x="146" y="599"/>
      <point x="137" y="587" type="curve" smooth="yes"/>
      <point x="115" y="558"/>
      <point x="77" y="504"/>
      <point x="50" y="459" type="curve" smooth="yes"/>
      <point x="44" y="449"/>
      <point x="42" y="441"/>
      <point x="42" y="436" type="curve" smooth="yes"/>
      <point x="42" y="427"/>
      <point x="49" y="422"/>
      <point x="57" y="422" type="curve" smooth="yes"/>
      <point x="72" y="422"/>
      <point x="94" y="418"/>
      <point x="95" y="395" type="curve" smooth="yes"/>
      <point x="101" y="302"/>
      <point x="103" y="202"/>
    </contour>
    <contour>
      <point x="252" y="131" type="line"/>
      <point x="227" y="131"/>
      <point x="209" y="141"/>
      <point x="204" y="174" type="curve" smooth="yes"/>
      <point x="199" y="206"/>
      <point x="194" y="336"/>
      <point x="194" y="387" type="curve" smooth="yes"/>
      <point x="194" y="414"/>
      <point x="199" y="421"/>
      <point x="227" y="421" type="curve" smooth="yes"/>
      <point x="454" y="421" type="line" smooth="yes"/>
      <point x="510" y="421"/>
      <point x="531" y="388"/>
      <point x="536" y="366" type="curve" smooth="yes"/>
      <point x="548" y="313"/>
      <point x="550" y="211"/>
      <point x="550" y="154" type="curve" smooth="yes"/>
      <point x="550" y="143"/>
      <point x="548" y="131"/>
      <point x="532" y="131" type="curve" smooth="yes"/>
    </contour>
  </outline>
</glyph>
<glyph name="memhebrew" format="1">
  <advance width="726"/>
  <unicode hex="05DE"/>
  <outline>
    <contour>
      <point x="156" y="293" type="curve" smooth="yes"/>
      <point x="156" y="210"/>
      <point x="85" y="28"/>
      <point x="85" y="-11" type="curve" smooth="yes"/>
      <point x="85" y="-18"/>
      <point x="88" y="-21"/>
      <point x="92" y="-21" type="curve" smooth="yes"/>
      <point x="99" y="-21"/>
      <point x="106" y="-16"/>
      <point x="115" y="-7" type="curve" smooth="yes"/>
      <point x="136" y="16"/>
      <point x="154" y="36"/>
      <point x="177" y="67" type="curve" smooth="yes"/>
      <point x="199" y="97"/>
      <point x="202" y="102"/>
      <point x="212" y="140" type="curve" smooth="yes"/>
      <point x="253" y="289"/>
      <point x="301" y="438"/>
      <point x="410" y="438" type="curve" smooth="yes"/>
      <point x="451" y="438"/>
      <point x="491" y="419"/>
      <point x="520" y="374" type="curve" smooth="yes"/>
      <point x="559" y="312"/>
      <point x="567" y="199"/>
      <point x="567" y="146" type="curve" smooth="yes"/>
      <point x="567" y="132"/>
      <point x="558" y="131"/>
      <point x="549" y="131" type="curve" smooth="yes"/>
      <point x="347" y="131" type="line" smooth="yes"/>
      <point x="337" y="131"/>
      <point x="330" y="128"/>
      <point x="319" y="113" type="curve" smooth="yes"/>
      <point x="305" y="93"/>
      <point x="287" y="61"/>
      <point x="267" y="27" type="curve" smooth="yes"/>
      <point x="264" y="22"/>
      <point x="261" y="14"/>
      <point x="261" y="12" type="curve" smooth="yes"/>
      <point x="261" y="3"/>
      <point x="267" y="0"/>
      <point x="278" y="0" type="curve" smooth="yes"/>
      <point x="570" y="0" type="line" smooth="yes"/>
      <point x="597" y="0"/>
      <point x="625" y="64"/>
      <point x="644" y="119" type="curve" smooth="yes"/>
      <point x="651" y="139"/>
      <point x="657" y="163"/>
      <point x="657" y="194" type="curve" smooth="yes"/>
      <point x="657" y="272"/>
      <point x="649" y="387"/>
      <point x="620" y="454" type="curve" smooth="yes"/>
      <point x="588" y="527"/>
      <point x="533" y="573"/>
      <point x="461" y="573" type="curve" smooth="yes"/>
      <point x="363" y="573"/>
      <point x="306" y="497"/>
      <point x="260" y="399" type="curve" smooth="yes"/>
      <point x="259" y="397"/>
      <point x="258" y="397"/>
      <point x="257" y="397" type="curve" smooth="yes"/>
      <point x="256" y="397"/>
      <point x="255" y="398"/>
      <point x="255" y="400" type="curve" smooth="yes"/>
      <point x="255" y="417"/>
      <point x="231" y="509"/>
      <point x="183" y="584" type="curve" smooth="yes"/>
      <point x="176" y="595"/>
      <point x="170" y="603"/>
      <point x="162" y="603" type="curve" smooth="yes"/>
      <point x="157" y="603"/>
      <point x="151" y="597"/>
      <point x="143" y="587" type="curve" smooth="yes"/>
      <point x="124" y="563"/>
      <point x="92" y="520"/>
      <point x="78" y="499" type="curve" smooth="yes"/>
      <point x="74" y="492"/>
      <point x="70" y="485"/>
      <point x="70" y="478" type="curve" smooth="yes"/>
      <point x="70" y="474"/>
      <point x="74" y="468"/>
      <point x="82" y="459" type="curve" smooth="yes"/>
      <point x="95" y="445"/>
      <point x="110" y="423"/>
      <point x="122" y="403" type="curve" smooth="yes"/>
      <point x="143" y="366"/>
      <point x="156" y="330"/>
    </contour>
  </outline>
</glyph>
<glyph name="nunhebrew" format="1">
  <advance width="407"/>
  <unicode hex="05E0"/>
  <outline>
    <contour>
      <point x="32" y="11" type="curve" smooth="yes"/>
      <point x="32" y="5"/>
      <point x="36" y="0"/>
      <point x="46" y="0" type="curve" smooth="yes"/>
      <point x="234" y="0" type="line" smooth="yes"/>
      <point x="253" y="0"/>
      <point x="263" y="2"/>
      <point x="279" y="29" type="curve" smooth="yes"/>
      <point x="293" y="53"/>
      <point x="307" y="83"/>
      <point x="317" y="110" type="curve" smooth="yes"/>
      <point x="328" y="139"/>
      <point x="336" y="168"/>
      <point x="336" y="199" type="curve" smooth="yes"/>
      <point x="336" y="263"/>
      <point x="333" y="330"/>
      <point x="328" y="370" type="curve" smooth="yes"/>
      <point x="319" y="445"/>
      <point x="298" y="493"/>
      <point x="264" y="521" type="curve" smooth="yes"/>
      <point x="239" y="541"/>
      <point x="203" y="569"/>
      <point x="169" y="589" type="curve" smooth="yes"/>
      <point x="154" y="598"/>
      <point x="147" y="603"/>
      <point x="140" y="603" type="curve" smooth="yes"/>
      <point x="135" y="603"/>
      <point x="132" y="601"/>
      <point x="124" y="592" type="curve" smooth="yes"/>
      <point x="105" y="571"/>
      <point x="78" y="533"/>
      <point x="64" y="509" type="curve" smooth="yes"/>
      <point x="58" y="499"/>
      <point x="55" y="493"/>
      <point x="55" y="489" type="curve" smooth="yes"/>
      <point x="55" y="482"/>
      <point x="60" y="478"/>
      <point x="66" y="475" type="curve" smooth="yes"/>
      <point x="110" y="453"/>
      <point x="145" y="430"/>
      <point x="172" y="410" type="curve" smooth="yes"/>
      <point x="217" y="377"/>
      <point x="231" y="345"/>
      <point x="237" y="296" type="curve" smooth="yes"/>
      <point x="241" y="265"/>
      <point x="245" y="227"/>
      <point x="245" y="187" type="curve" smooth="yes"/>
      <point x="245" y="151"/>
      <point x="245" y="131"/>
      <point x="227" y="131" type="curve" smooth="yes"/>
      <point x="98" y="131" type="line" smooth="yes"/>
      <point x="91" y="131"/>
      <point x="83" y="126"/>
      <point x="75" y="111" type="curve" smooth="yes"/>
      <point x="57" y="77"/>
      <point x="32" y="21"/>
    </contour>
  </outline>
</glyph>
<glyph name="ayinhebrew" format="1">
  <advance width="567"/>
  <unicode hex="05E2"/>
  <outline>
    <contour>
      <point x="92" y="39" type="curve" smooth="yes"/>
      <point x="76" y="7"/>
      <point x="46" y="-58"/>
      <point x="46" y="-77" type="curve" smooth="yes"/>
      <point x="46" y="-85"/>
      <point x="50" y="-89"/>
      <point x="57" y="-89" type="curve" smooth="yes"/>
      <point x="62" y="-89"/>
      <point x="79" y="-83"/>
      <point x="99" y="-74" type="curve" smooth="yes"/>
      <point x="235" y="-14"/>
      <point x="360" y="69"/>
      <point x="384" y="87" type="curve" smooth="yes"/>
      <point x="413" y="109"/>
      <point x="439" y="141"/>
      <point x="454" y="175" type="curve" smooth="yes"/>
      <point x="483" y="240"/>
      <point x="500" y="309"/>
      <point x="503" y="345" type="curve" smooth="yes"/>
      <point x="504" y="359"/>
      <point x="506" y="377"/>
      <point x="506" y="403" type="curve" smooth="yes"/>
      <point x="505" y="452"/>
      <point x="492" y="527"/>
      <point x="470" y="589" type="curve" smooth="yes"/>
      <point x="466" y="599"/>
      <point x="460" y="602"/>
      <point x="455" y="602" type="curve" smooth="yes"/>
      <point x="450" y="602"/>
      <point x="445" y="599"/>
      <point x="438" y="591" type="curve" smooth="yes"/>
      <point x="416" y="565"/>
      <point x="396" y="535"/>
      <point x="377" y="509" type="curve" smooth="yes"/>
      <point x="369" y="498"/>
      <point x="364" y="488"/>
      <point x="364" y="481" type="curve" smooth="yes"/>
      <point x="364" y="471"/>
      <point x="371" y="458"/>
      <point x="379" y="439" type="curve" smooth="yes"/>
      <point x="400" y="388"/>
      <point x="415" y="317"/>
      <point x="415" y="271" type="curve" smooth="yes"/>
      <point x="415" y="242"/>
      <point x="409" y="224"/>
      <point x="389" y="209" type="curve" smooth="yes"/>
      <point x="368" y="193"/>
      <point x="340" y="176"/>
      <point x="304" y="155" type="curve" smooth="yes"/>
      <point x="299" y="152"/>
      <point x="295" y="151"/>
      <point x="293" y="151" type="curve" smooth="yes"/>
      <point x="290" y="151"/>
      <point x="288" y="153"/>
      <point x="287" y="158" type="curve" smooth="yes"/>
      <point x="255" y="287"/>
      <point x="219" y="455"/>
      <point x="158" y="589" type="curve" smooth="yes"/>
      <point x="155" y="595"/>
      <point x="151" y="602"/>
      <point x="145" y="602" type="curve" smooth="yes"/>
      <point x="136" y="602"/>
      <point x="129" y="595"/>
      <point x="119" y="583" type="curve" smooth="yes"/>
      <point x="99" y="559"/>
      <point x="72" y="522"/>
      <point x="61" y="505" type="curve" smooth="yes"/>
      <point x="53" y="493"/>
      <point x="50" y="487"/>
      <point x="50" y="482" type="curve" smooth="yes"/>
      <point x="50" y="477"/>
      <point x="54" y="470"/>
      <point x="60" y="462" type="curve" smooth="yes"/>
      <point x="135" y="351"/>
      <point x="180" y="199"/>
      <point x="200" y="121" type="curve" smooth="yes"/>
      <point x="201" y="117"/>
      <point x="202" y="111"/>
      <point x="202" y="110" type="curve" smooth="yes"/>
      <point x="202" y="105"/>
      <point x="200" y="102"/>
      <point x="196" y="100" type="curve" smooth="yes"/>
      <point x="156" y="80"/>
      <point x="125" y="66"/>
      <point x="112" y="59" type="curve" smooth="yes"/>
      <point x="101" y="53"/>
      <point x="95" y="45"/>
    </contour>
  </outline>
</glyph>
<glyph name="finalpehebrew" format="1">
  <advance width="567"/>
  <unicode hex="05E3"/>
  <outline>
    <contour>
      <point x="414" y="-222" type="curve" smooth="yes"/>
      <point x="415" y="-227"/>
      <point x="419" y="-228"/>
      <point x="423" y="-228" type="curve" smooth="yes"/>
      <point x="428" y="-228"/>
      <point x="433" y="-222"/>
      <point x="438" y="-214" type="curve" smooth="yes"/>
      <point x="443" y="-206"/>
      <point x="477" y="-143"/>
      <point x="482" y="-134" type="curve" smooth="yes"/>
      <point x="490" y="-119"/>
      <point x="493" y="-97"/>
      <point x="493" y="-68" type="curve" smooth="yes"/>
      <point x="493" y="67"/>
      <point x="488" y="193"/>
      <point x="484" y="314" type="curve" smooth="yes"/>
      <point x="481" y="407"/>
      <point x="466" y="472"/>
      <point x="401" y="521" type="curve" smooth="yes"/>
      <point x="353" y="556"/>
      <point x="279" y="584"/>
      <point x="239" y="598" type="curve" smooth="yes"/>
      <point x="226" y="603"/>
      <point x="224" y="603"/>
      <point x="214" y="603" type="curve" smooth="yes"/>
      <point x="207" y="603"/>
      <point x="202" y="598"/>
      <point x="194" y="592" type="curve" smooth="yes"/>
      <point x="120" y="534"/>
      <point x="50" y="435"/>
      <point x="50" y="365" type="curve" smooth="yes"/>
      <point x="50" y="285"/>
      <point x="95" y="222"/>
      <point x="161" y="189" type="curve" smooth="yes"/>
      <point x="169" y="185"/>
      <point x="175" y="183"/>
      <point x="179" y="183" type="curve" smooth="yes"/>
      <point x="185" y="183"/>
      <point x="188" y="187"/>
      <point x="194" y="195" type="curve" smooth="yes"/>
      <point x="206" y="211"/>
      <point x="232" y="253"/>
      <point x="239" y="270" type="curve" smooth="yes"/>
      <point x="239" y="271"/>
      <point x="242" y="279"/>
      <point x="242" y="281" type="curve" smooth="yes"/>
      <point x="242" y="284"/>
      <point x="240" y="288"/>
      <point x="238" y="289" type="curve" smooth="yes"/>
      <point x="189" y="310"/>
      <point x="151" y="344"/>
      <point x="151" y="394" type="curve" smooth="yes"/>
      <point x="151" y="413"/>
      <point x="159" y="442"/>
      <point x="171" y="464" type="curve" smooth="yes"/>
      <point x="173" y="467"/>
      <point x="175" y="468"/>
      <point x="178" y="468" type="curve" smooth="yes"/>
      <point x="236" y="452"/>
      <point x="297" y="423"/>
      <point x="322" y="405" type="curve" smooth="yes"/>
      <point x="359" y="379"/>
      <point x="382" y="343"/>
      <point x="387" y="286" type="curve" smooth="yes"/>
      <point x="401" y="121"/>
      <point x="410" y="-195"/>
    </contour>
  </outline>
</glyph>
<glyph name="reshhebrew" format="1">
  <advance width="567"/>
  <unicode hex="05E8"/>
  <outline>
    <contour>
      <point x="379" y="288" type="curve" smooth="yes"/>
      <point x="388" y="207"/>
      <point x="395" y="90"/>
      <point x="399" y="-3" type="curve" smooth="yes"/>
      <point x="400" y="-20"/>
      <point x="407" y="-26"/>
      <point x="413" y="-26" type="curve" smooth="yes"/>
      <point x="419" y="-26"/>
      <point x="425" y="-19"/>
      <point x="431" y="-10" type="curve" smooth="yes"/>
      <point x="445" y="11"/>
      <point x="466" y="48"/>
      <point x="474" y="67" type="curve" smooth="yes"/>
      <point x="484" y="90"/>
      <point x="486" y="110"/>
      <point x="486" y="132" type="curve" smooth="yes"/>
      <point x="486" y="220"/>
      <point x="480" y="298"/>
      <point x="472" y="383" type="curve" smooth="yes"/>
      <point x="464" y="471"/>
      <point x="399" y="552"/>
      <point x="312" y="552" type="curve" smooth="yes"/>
      <point x="190" y="552" type="line" smooth="yes"/>
      <point x="170" y="552"/>
      <point x="163" y="570"/>
      <point x="160" y="586" type="curve" smooth="yes"/>
      <point x="158" y="596"/>
      <point x="153" y="603"/>
      <point x="144" y="603" type="curve" smooth="yes"/>
      <point x="139" y="603"/>
      <point x="128" y="597"/>
      <point x="117" y="580" type="curve" smooth="yes"/>
      <point x="95" y="546"/>
      <point x="62" y="488"/>
      <point x="48" y="460" type="curve" smooth="yes"/>
      <point x="42" y="448"/>
      <point x="39" y="441"/>
      <point x="39" y="434" type="curve" smooth="yes"/>
      <point x="39" y="425"/>
      <point x="48" y="421"/>
      <point x="62" y="421" type="curve" smooth="yes"/>
      <point x="242" y="421" type="line" smooth="yes"/>
      <point x="328" y="421"/>
      <point x="370" y="371"/>
    </contour>
  </outline>
</glyph>
<glyph name="uni05F4" format="1">
  <advance width="403"/>
  <unicode hex="05F4"/>
  <outline>
    <contour>
      <point x="160" y="665" type="curve" smooth="yes"/>
      <point x="153" y="662"/>
      <point x="145" y="654"/>
      <point x="137" y="643" type="curve" smooth="yes"/>
      <point x="77" y="563"/>
      <point x="28" y="469"/>
      <point x="28" y="460" type="curve" smooth="yes"/>
      <point x="28" y="451"/>
      <point x="37" y="445"/>
      <point x="44" y="445" type="curve" smooth="yes"/>
      <point x="70" y="445"/>
      <point x="169" y="532"/>
      <point x="183" y="557" type="curve" smooth="yes"/>
      <point x="200" y="587"/>
      <point x="208" y="604"/>
      <point x="210" y="631" type="curve" smooth="yes"/>
      <point x="210" y="640" type="line" smooth="yes"/>
      <point x="210" y="657"/>
      <point x="208" y="667"/>
      <point x="190" y="667" type="curve" smooth="yes"/>
      <point x="175" y="667" type="line" smooth="yes"/>
      <point x="169" y="667"/>
      <point x="164" y="666"/>
    </contour>
    <contour>
      <point x="317" y="666" type="curve"/>
      <point x="309" y="662"/>
      <point x="301" y="655"/>
      <point x="293" y="644" type="curve" smooth="yes"/>
      <point x="240" y="574"/>
      <point x="186" y="478"/>
      <point x="186" y="466" type="curve"/>
      <point x="185" y="463"/>
      <point x="185" y="461"/>
      <point x="185" y="459" type="curve" smooth="yes"/>
      <point x="185" y="449"/>
      <point x="192" y="444"/>
      <point x="200" y="444" type="curve" smooth="yes"/>
      <point x="242" y="444"/>
      <point x="345" y="565"/>
      <point x="346" y="567" type="curve" smooth="yes"/>
      <point x="356" y="585"/>
      <point x="365" y="605"/>
      <point x="367" y="632" type="curve" smooth="yes"/>
      <point x="367" y="641" type="line" smooth="yes"/>
      <point x="367" y="659"/>
      <point x="363" y="668"/>
      <point x="347" y="668" type="curve" smooth="yes"/>
      <point x="342" y="668" type="line" smooth="yes"/>
      <point x="333" y="668"/>
      <point x="324" y="667"/>
    </contour>
  </outline>
</glyph>
<glyph name="emdash" format="1">
  <advance width="672"/>
  <unicode hex="2014"/>
  <outline>
    <contour>
      <point x="115" y="311" type="curve"/>
      <point x="100" y="293"/>
      <point x="88" y="277"/>
      <point x="79" y="261" type="curve"/>
      <point x="77" y="257"/>
      <point x="72" y="248"/>
      <point x="72" y="241" type="curve"/>
      <point x="72" y="231"/>
      <point x="81" y="228"/>
      <point x="92" y="228" type="curve"/>
      <point x="129" y="228"/>
      <point x="498" y="228"/>
      <point x="533" y="228" type="curve"/>
      <point x="546" y="228"/>
      <point x="553" y="231"/>
      <point x="562" y="243" type="curve"/>
      <point x="576" y="261"/>
      <point x="582" y="273"/>
      <point x="593" y="293" type="curve"/>
      <point x="597" y="300"/>
      <point x="599" y="307"/>
      <point x="599" y="312" type="curve"/>
      <point x="599" y="323"/>
      <point x="592" y="326"/>
      <point x="578" y="326" type="curve"/>
      <point x="149" y="326" type="line" smooth="yes"/>
      <point x="135" y="326"/>
      <point x="126" y="323"/>
    </contour>
  </outline>
</glyph>
<glyph name="quoteright" format="1">
  <advance width="341"/>
  <unicode hex="2019"/>
  <outline>
    <contour>
      <point x="84" y="301" type="curve" smooth="yes"/>
      <point x="78" y="283"/>
      <point x="75" y="276"/>
      <point x="75" y="268" type="curve" smooth="yes"/>
      <point x="75" y="261"/>
      <point x="79" y="254"/>
      <point x="86" y="254" type="curve" smooth="yes"/>
      <point x="97" y="254"/>
      <point x="107" y="264"/>
      <point x="118" y="275" type="curve" smooth="yes"/>
      <point x="156" y="313"/>
      <point x="184" y="361"/>
      <point x="208" y="404" type="curve" smooth="yes"/>
      <point x="232" y="447"/>
      <point x="249" y="497"/>
      <point x="249" y="530" type="curve" smooth="yes"/>
      <point x="249" y="557"/>
      <point x="243" y="588"/>
      <point x="233" y="608" type="curve" smooth="yes"/>
      <point x="227" y="620"/>
      <point x="220" y="629"/>
      <point x="214" y="629" type="curve" smooth="yes"/>
      <point x="205" y="629"/>
      <point x="200" y="627"/>
      <point x="192" y="619" type="curve" smooth="yes"/>
      <point x="164" y="591"/>
      <point x="145" y="573"/>
      <point x="131" y="554" type="curve" smooth="yes"/>
      <point x="126" y="547"/>
      <point x="122" y="541"/>
      <point x="122" y="531" type="curve" smooth="yes"/>
      <point x="122" y="519"/>
      <point x="126" y="501"/>
      <point x="126" y="476" type="curve" smooth="yes"/>
      <point x="126" y="416"/>
      <point x="101" y="351"/>
    </contour>
  </outline>
</glyph>
<glyph name="quotedblright" format="1">
  <advance width="562"/>
  <unicode hex="201D"/>
  <outline>
    <contour>
      <point x="86" y="301" type="curve" smooth="yes"/>
      <point x="80" y="283"/>
      <point x="77" y="276"/>
      <point x="77" y="268" type="curve" smooth="yes"/>
      <point x="77" y="261"/>
      <point x="81" y="254"/>
      <point x="88" y="254" type="curve" smooth="yes"/>
      <point x="99" y="254"/>
      <point x="109" y="264"/>
      <point x="120" y="275" type="curve" smooth="yes"/>
      <point x="158" y="313"/>
      <point x="183" y="361"/>
      <point x="210" y="404" type="curve" smooth="yes"/>
      <point x="236" y="445"/>
      <point x="251" y="497"/>
      <point x="251" y="530" type="curve" smooth="yes"/>
      <point x="251" y="557"/>
      <point x="245" y="588"/>
      <point x="235" y="608" type="curve" smooth="yes"/>
      <point x="229" y="620"/>
      <point x="222" y="629"/>
      <point x="216" y="629" type="curve" smooth="yes"/>
      <point x="207" y="629"/>
      <point x="202" y="627"/>
      <point x="194" y="619" type="curve" smooth="yes"/>
      <point x="166" y="591"/>
      <point x="147" y="573"/>
      <point x="133" y="554" type="curve" smooth="yes"/>
      <point x="128" y="547"/>
      <point x="124" y="541"/>
      <point x="124" y="531" type="curve" smooth="yes"/>
      <point x="124" y="519"/>
      <point x="128" y="501"/>
      <point x="128" y="476" type="curve" smooth="yes"/>
      <point x="128" y="416"/>
      <point x="103" y="351"/>
    </contour>
    <contour>
      <point x="321" y="301" type="curve" smooth="yes"/>
      <point x="315" y="283"/>
      <point x="312" y="276"/>
      <point x="312" y="268" type="curve" smooth="yes"/>
      <point x="312" y="261"/>
      <point x="316" y="254"/>
      <point x="323" y="254" type="curve" smooth="yes"/>
      <point x="334" y="254"/>
      <point x="344" y="264"/>
      <point x="355" y="275" type="curve" smooth="yes"/>
      <point x="393" y="313"/>
      <point x="418" y="361"/>
      <point x="445" y="404" type="curve" smooth="yes"/>
      <point x="471" y="445"/>
      <point x="486" y="497"/>
      <point x="486" y="530" type="curve" smooth="yes"/>
      <point x="486" y="557"/>
      <point x="480" y="588"/>
      <point x="470" y="608" type="curve" smooth="yes"/>
      <point x="464" y="620"/>
      <point x="457" y="629"/>
      <point x="451" y="629" type="curve" smooth="yes"/>
      <point x="442" y="629"/>
      <point x="437" y="627"/>
      <point x="429" y="619" type="curve" smooth="yes"/>
      <point x="401" y="591"/>
      <point x="382" y="573"/>
      <point x="368" y="554" type="curve" smooth="yes"/>
      <point x="363" y="547"/>
      <point x="359" y="541"/>
      <point x="359" y="531" type="curve" smooth="yes"/>
      <point x="359" y="519"/>
      <point x="363" y="501"/>
      <point x="363" y="476" type="curve" smooth="yes"/>
      <point x="363" y="416"/>
      <point x="338" y="351"/>
    </contour>
  </outline>
</glyph>
<glyph name="quotedblbase" format="1">
  <advance width="562"/>
  <unicode hex="201E"/>
  <outline>
    <contour>
      <point x="86" y="-137" type="curve" smooth="yes"/>
      <point x="80" y="-155"/>
      <point x="77" y="-162"/>
      <point x="77" y="-170" type="curve" smooth="yes"/>
      <point x="77" y="-177"/>
      <point x="81" y="-184"/>
      <point x="88" y="-184" type="curve" smooth="yes"/>
      <point x="99" y="-184"/>
      <point x="109" y="-174"/>
      <point x="120" y="-163" type="curve" smooth="yes"/>
      <point x="158" y="-125"/>
      <point x="183" y="-77"/>
      <point x="210" y="-34" type="curve" smooth="yes"/>
      <point x="236" y="7"/>
      <point x="251" y="59"/>
      <point x="251" y="92" type="curve" smooth="yes"/>
      <point x="251" y="119"/>
      <point x="245" y="150"/>
      <point x="235" y="170" type="curve" smooth="yes"/>
      <point x="229" y="182"/>
      <point x="222" y="191"/>
      <point x="216" y="191" type="curve" smooth="yes"/>
      <point x="207" y="191"/>
      <point x="202" y="189"/>
      <point x="194" y="181" type="curve" smooth="yes"/>
      <point x="166" y="153"/>
      <point x="147" y="135"/>
      <point x="133" y="116" type="curve" smooth="yes"/>
      <point x="128" y="109"/>
      <point x="124" y="103"/>
      <point x="124" y="93" type="curve" smooth="yes"/>
      <point x="124" y="81"/>
      <point x="128" y="63"/>
      <point x="128" y="38" type="curve" smooth="yes"/>
      <point x="128" y="-22"/>
      <point x="103" y="-87"/>
    </contour>
    <contour>
      <point x="321" y="-137" type="curve" smooth="yes"/>
      <point x="315" y="-155"/>
      <point x="312" y="-162"/>
      <point x="312" y="-170" type="curve" smooth="yes"/>
      <point x="312" y="-177"/>
      <point x="316" y="-184"/>
      <point x="323" y="-184" type="curve" smooth="yes"/>
      <point x="334" y="-184"/>
      <point x="344" y="-174"/>
      <point x="355" y="-163" type="curve" smooth="yes"/>
      <point x="393" y="-125"/>
      <point x="418" y="-77"/>
      <point x="445" y="-34" type="curve" smooth="yes"/>
      <point x="471" y="7"/>
      <point x="486" y="59"/>
      <point x="486" y="92" type="curve" smooth="yes"/>
      <point x="486" y="119"/>
      <point x="480" y="150"/>
      <point x="470" y="170" type="curve" smooth="yes"/>
      <point x="464" y="182"/>
      <point x="457" y="191"/>
      <point x="451" y="191" type="curve" smooth="yes"/>
      <point x="442" y="191"/>
      <point x="437" y="189"/>
      <point x="429" y="181" type="curve" smooth="yes"/>
      <point x="401" y="153"/>
      <point x="382" y="135"/>
      <point x="368" y="116" type="curve" smooth="yes"/>
      <point x="363" y="109"/>
      <point x="359" y="103"/>
      <point x="359" y="93" type="curve" smooth="yes"/>
      <point x="359" y="81"/>
      <point x="363" y="63"/>
      <point x="363" y="38" type="curve" smooth="yes"/>
      <point x="363" y="-22"/>
      <point x="338" y="-87"/>
    </contour>
  </outline>
</glyph>
<glyph name="ellipsis" format="1">
  <advance width="1015"/>
  <unicode hex="2026"/>
  <outline>
    <contour>
      <point x="425" y="54" type="curve"/>
      <point x="444" y="29"/>
      <point x="479" y="-1"/>
      <point x="506" y="-17" type="curve" smooth="yes"/>
      <point x="509" y="-19"/>
      <point x="513" y="-20"/>
      <point x="517" y="-20" type="curve" smooth="yes"/>
      <point x="521" y="-20"/>
      <point x="526" y="-18"/>
      <point x="529" y="-15" type="curve" smooth="yes"/>
      <point x="548" y="3"/>
      <point x="576" y="34"/>
      <point x="592" y="59" type="curve" smooth="yes"/>
      <point x="595" y="64"/>
      <point x="598" y="69"/>
      <point x="598" y="74" type="curve" smooth="yes"/>
      <point x="598" y="81"/>
      <point x="594" y="86"/>
      <point x="589" y="89" type="curve" smooth="yes"/>
      <point x="568" y="101"/>
      <point x="534" y="134"/>
      <point x="514" y="152" type="curve" smooth="yes"/>
      <point x="509" y="156"/>
      <point x="506" y="158"/>
      <point x="501" y="158" type="curve" smooth="yes"/>
      <point x="496" y="158"/>
      <point x="491" y="155"/>
      <point x="487" y="151" type="curve" smooth="yes"/>
      <point x="475" y="138"/>
      <point x="439" y="99"/>
      <point x="424" y="81" type="curve" smooth="yes"/>
      <point x="420" y="76"/>
      <point x="419" y="72"/>
      <point x="419" y="68" type="curve" smooth="yes"/>
      <point x="419" y="63"/>
      <point x="422" y="58"/>
    </contour>
    <contour>
      <point x="718" y="54" type="curve"/>
      <point x="737" y="29"/>
      <point x="772" y="-1"/>
      <point x="799" y="-17" type="curve" smooth="yes"/>
      <point x="802" y="-19"/>
      <point x="806" y="-20"/>
      <point x="810" y="-20" type="curve" smooth="yes"/>
      <point x="814" y="-20"/>
      <point x="819" y="-18"/>
      <point x="822" y="-15" type="curve" smooth="yes"/>
      <point x="841" y="3"/>
      <point x="869" y="34"/>
      <point x="885" y="59" type="curve" smooth="yes"/>
      <point x="888" y="64"/>
      <point x="891" y="69"/>
      <point x="891" y="74" type="curve" smooth="yes"/>
      <point x="891" y="81"/>
      <point x="887" y="86"/>
      <point x="882" y="89" type="curve" smooth="yes"/>
      <point x="861" y="101"/>
      <point x="827" y="134"/>
      <point x="807" y="152" type="curve" smooth="yes"/>
      <point x="802" y="156"/>
      <point x="799" y="158"/>
      <point x="794" y="158" type="curve" smooth="yes"/>
      <point x="789" y="158"/>
      <point x="784" y="155"/>
      <point x="780" y="151" type="curve" smooth="yes"/>
      <point x="768" y="138"/>
      <point x="732" y="99"/>
      <point x="717" y="81" type="curve" smooth="yes"/>
      <point x="713" y="76"/>
      <point x="712" y="72"/>
      <point x="712" y="68" type="curve" smooth="yes"/>
      <point x="712" y="63"/>
      <point x="715" y="58"/>
    </contour>
    <contour>
      <point x="130" y="54" type="curve"/>
      <point x="149" y="29"/>
      <point x="184" y="-1"/>
      <point x="211" y="-17" type="curve" smooth="yes"/>
      <point x="214" y="-19"/>
      <point x="218" y="-20"/>
      <point x="222" y="-20" type="curve" smooth="yes"/>
      <point x="226" y="-20"/>
      <point x="231" y="-18"/>
      <point x="234" y="-15" type="curve" smooth="yes"/>
      <point x="253" y="3"/>
      <point x="281" y="34"/>
      <point x="297" y="59" type="curve" smooth="yes"/>
      <point x="300" y="64"/>
      <point x="303" y="69"/>
      <point x="303" y="74" type="curve" smooth="yes"/>
      <point x="303" y="81"/>
      <point x="299" y="86"/>
      <point x="294" y="89" type="curve" smooth="yes"/>
      <point x="273" y="101"/>
      <point x="239" y="134"/>
      <point x="219" y="152" type="curve" smooth="yes"/>
      <point x="214" y="156"/>
      <point x="211" y="158"/>
      <point x="206" y="158" type="curve" smooth="yes"/>
      <point x="201" y="158"/>
      <point x="196" y="155"/>
      <point x="192" y="151" type="curve" smooth="yes"/>
      <point x="180" y="138"/>
      <point x="144" y="99"/>
      <point x="129" y="81" type="curve" smooth="yes"/>
      <point x="125" y="76"/>
      <point x="124" y="72"/>
      <point x="124" y="68" type="curve" smooth="yes"/>
      <point x="124" y="63"/>
      <point x="127" y="58"/>
    </contour>
  </outline>
</glyph>
<glyph name="guilsinglleft" format="1">
  <advance width="231"/>
  <unicode hex="2039"/>
  <outline>
    <contour>
      <point x="85" y="363" type="curve" smooth="yes"/>
      <point x="70" y="343"/>
      <point x="40" y="301"/>
      <point x="28" y="276" type="curve" smooth="yes"/>
      <point x="26" y="272"/>
      <point x="24" y="266"/>
      <point x="24" y="261" type="curve" smooth="yes"/>
      <point x="24" y="255"/>
      <point x="26" y="249"/>
      <point x="33" y="238" type="curve" smooth="yes"/>
      <point x="48" y="213"/>
      <point x="93" y="164"/>
      <point x="120" y="141" type="curve" smooth="yes"/>
      <point x="125" y="137"/>
      <point x="128" y="136"/>
      <point x="130" y="136" type="curve" smooth="yes"/>
      <point x="133" y="136"/>
      <point x="137" y="138"/>
      <point x="141" y="143" type="curve" smooth="yes"/>
      <point x="160" y="166"/>
      <point x="170" y="182"/>
      <point x="183" y="203" type="curve" smooth="yes"/>
      <point x="189" y="213"/>
      <point x="188" y="216"/>
      <point x="189" y="218" type="curve" smooth="yes"/>
      <point x="189" y="224"/>
      <point x="187" y="227"/>
      <point x="185" y="229" type="curve" smooth="yes"/>
      <point x="139" y="279" type="line"/>
      <point x="136" y="282"/>
      <point x="134" y="288"/>
      <point x="134" y="291" type="curve" smooth="yes"/>
      <point x="134" y="294"/>
      <point x="135" y="298"/>
      <point x="137" y="303" type="curve" smooth="yes"/>
      <point x="178" y="391" type="line" smooth="yes"/>
      <point x="180" y="395"/>
      <point x="182" y="401"/>
      <point x="182" y="404" type="curve" smooth="yes"/>
      <point x="182" y="408"/>
      <point x="179" y="411"/>
      <point x="174" y="411" type="curve" smooth="yes"/>
      <point x="172" y="411"/>
      <point x="169" y="411"/>
      <point x="165" y="409" type="curve" smooth="yes"/>
      <point x="157" y="406"/>
      <point x="119" y="388"/>
      <point x="114" y="385" type="curve" smooth="yes"/>
      <point x="107" y="381"/>
      <point x="94" y="375"/>
    </contour>
  </outline>
</glyph>
<glyph name="minus" format="1">
  <advance width="544"/>
  <unicode hex="2212"/>
  <outline>
    <contour>
      <point x="76" y="360" type="curve"/>
      <point x="63" y="360"/>
      <point x="60" y="354"/>
      <point x="60" y="344" type="curve" smooth="yes"/>
      <point x="60" y="293" type="line" smooth="yes"/>
      <point x="60" y="284"/>
      <point x="63" y="278"/>
      <point x="76" y="278" type="curve" smooth="yes"/>
      <point x="76" y="278"/>
      <point x="241" y="281"/>
      <point x="296" y="281" type="curve" smooth="yes"/>
      <point x="342" y="281"/>
      <point x="480" y="278"/>
      <point x="480" y="278" type="curve"/>
      <point x="493" y="278"/>
      <point x="496" y="284"/>
      <point x="496" y="293" type="curve" smooth="yes"/>
      <point x="496" y="344" type="line" smooth="yes"/>
      <point x="496" y="358"/>
      <point x="488" y="360"/>
      <point x="482" y="360" type="curve" smooth="yes"/>
      <point x="483" y="360"/>
      <point x="354" y="357"/>
      <point x="294" y="357" type="curve" smooth="yes"/>
      <point x="229" y="357"/>
      <point x="76" y="360"/>
    </contour>
  </outline>
</glyph>
<glyph name="lessequal" format="1">
  <advance width="544"/>
  <unicode hex="2264"/>
  <outline>
    <contour>
      <point x="87" y="84" type="curve"/>
      <point x="77" y="84"/>
      <point x="72" y="80"/>
      <point x="72" y="68" type="curve" smooth="yes"/>
      <point x="72" y="17" type="line" smooth="yes"/>
      <point x="72" y="8"/>
      <point x="75" y="2"/>
      <point x="88" y="2" type="curve" smooth="yes"/>
      <point x="88" y="2"/>
      <point x="231" y="5"/>
      <point x="281" y="5" type="curve" smooth="yes"/>
      <point x="332" y="5"/>
      <point x="475" y="2"/>
      <point x="475" y="2" type="curve"/>
      <point x="488" y="2"/>
      <point x="491" y="8"/>
      <point x="491" y="17" type="curve" smooth="yes"/>
      <point x="491" y="68" type="line" smooth="yes"/>
      <point x="491" y="80"/>
      <point x="485" y="84"/>
      <point x="476" y="84" type="curve" smooth="yes"/>
      <point x="476" y="84"/>
      <point x="342" y="81"/>
      <point x="281" y="81" type="curve" smooth="yes"/>
      <point x="220" y="81"/>
      <point x="87" y="84"/>
    </contour>
    <contour>
      <point x="78" y="295" type="curve" smooth="yes"/>
      <point x="112" y="281"/>
      <point x="195" y="243"/>
      <point x="274" y="206" type="curve" smooth="yes"/>
      <point x="345" y="173"/>
      <point x="414" y="140"/>
      <point x="442" y="125" type="curve" smooth="yes"/>
      <point x="445" y="124"/>
      <point x="449" y="123"/>
      <point x="452" y="123" type="curve" smooth="yes"/>
      <point x="456" y="123"/>
      <point x="460" y="125"/>
      <point x="464" y="132" type="curve" smooth="yes"/>
      <point x="487" y="180" type="line" smooth="yes"/>
      <point x="488" y="183"/>
      <point x="489" y="186"/>
      <point x="489" y="188" type="curve" smooth="yes"/>
      <point x="489" y="193"/>
      <point x="487" y="197"/>
      <point x="479" y="200" type="curve" smooth="yes"/>
      <point x="447" y="213"/>
      <point x="379" y="245"/>
      <point x="313" y="275" type="curve" smooth="yes"/>
      <point x="262" y="298"/>
      <point x="219" y="319"/>
      <point x="176" y="339" type="curve"/>
      <point x="314" y="403" type="line" smooth="yes"/>
      <point x="358" y="423"/>
      <point x="477" y="475"/>
      <point x="477" y="475" type="curve"/>
      <point x="486" y="480"/>
      <point x="489" y="483"/>
      <point x="489" y="489" type="curve"/>
      <point x="488" y="490"/>
      <point x="487" y="492"/>
      <point x="487" y="494" type="curve"/>
      <point x="465" y="542" type="line" smooth="yes"/>
      <point x="461" y="551"/>
      <point x="456" y="553"/>
      <point x="452" y="553" type="curve" smooth="yes"/>
      <point x="448" y="553"/>
      <point x="445" y="552"/>
      <point x="442" y="551" type="curve" smooth="yes"/>
      <point x="268" y="466" type="line" smooth="yes"/>
      <point x="207" y="436"/>
      <point x="121" y="402"/>
      <point x="78" y="384" type="curve" smooth="yes"/>
      <point x="70" y="380"/>
      <point x="65" y="377"/>
      <point x="65" y="367" type="curve" smooth="yes"/>
      <point x="65" y="314" type="line" smooth="yes"/>
      <point x="65" y="303"/>
      <point x="69" y="299"/>
    </contour>
  </outline>
</glyph>
<glyph name="uniFB29" format="1">
  <advance width="578"/>
  <unicode hex="FB29"/>
  <outline>
    <contour>
      <point x="314" y="278" type="line"/>
      <point x="368" y="278"/>
      <point x="480" y="275"/>
      <point x="480" y="275" type="curve"/>
      <point x="493" y="275"/>
      <point x="496" y="281"/>
      <point x="496" y="290" type="curve" smooth="yes"/>
      <point x="496" y="341" type="line" smooth="yes"/>
      <point x="496" y="355"/>
      <point x="491" y="357"/>
      <point x="482" y="357" type="curve" smooth="yes"/>
      <point x="482" y="357"/>
      <point x="376" y="354"/>
      <point x="314" y="354" type="curve"/>
      <point x="314" y="410"/>
      <point x="317" y="515"/>
      <point x="317" y="515" type="curve"/>
      <point x="317" y="528"/>
      <point x="311" y="531"/>
      <point x="302" y="531" type="curve" smooth="yes"/>
      <point x="251" y="531" type="line" smooth="yes"/>
      <point x="237" y="531"/>
      <point x="235" y="523"/>
      <point x="235" y="517" type="curve" smooth="yes"/>
      <point x="235" y="517"/>
      <point x="237" y="417"/>
      <point x="238" y="354" type="curve"/>
      <point x="166" y="355"/>
      <point x="76" y="357"/>
      <point x="76" y="357" type="curve"/>
      <point x="63" y="357"/>
      <point x="60" y="351"/>
      <point x="60" y="341" type="curve" smooth="yes"/>
      <point x="60" y="290" type="line" smooth="yes"/>
      <point x="60" y="281"/>
      <point x="63" y="275"/>
      <point x="76" y="275" type="curve" smooth="yes"/>
      <point x="76" y="275"/>
      <point x="168" y="278"/>
      <point x="238" y="278" type="curve" smooth="yes"/>
    </contour>
  </outline>
</glyph>
<glyph name="bar" format="1">
  <advance width="326"/>
  <outline>
    <contour>
      <point x="71" y="-155" type="curve"/>
      <point x="71" y="-163"/>
      <point x="73" y="-172"/>
      <point x="85" y="-172" type="curve" smooth="yes"/>
      <point x="122" y="-172" type="line" smooth="yes"/>
      <point x="133" y="-172"/>
      <point x="137" y="-164"/>
      <point x="137" y="-156" type="curve" smooth="yes"/>
      <point x="137" y="23"/>
      <point x="143" y="220"/>
      <point x="143" y="284" type="curve" smooth="yes"/>
      <point x="143" y="366"/>
      <point x="137" y="590"/>
      <point x="137" y="720" type="curve" smooth="yes"/>
      <point x="137" y="728"/>
      <point x="133" y="736"/>
      <point x="122" y="736" type="curve" smooth="yes"/>
      <point x="85" y="736" type="line" smooth="yes"/>
      <point x="73" y="736"/>
      <point x="71" y="727"/>
      <point x="71" y="719" type="curve" smooth="yes"/>
      <point x="71" y="592"/>
      <point x="64" y="366"/>
      <point x="64" y="284" type="curve" smooth="yes"/>
      <point x="64" y="220"/>
      <point x="68" y="-1"/>
    </contour>
  </outline>
</glyph>
<glyph name="four.001" format="1">
  <advance width="500"/>
  <outline>
    <contour>
      <point x="268" y="143" type="curve" smooth="yes"/>
      <point x="268" y="127"/>
      <point x="272" y="36"/>
      <point x="272" y="-4" type="curve" smooth="yes"/>
      <point x="272" y="-20"/>
      <point x="277" y="-25"/>
      <point x="284" y="-25" type="curve" smooth="yes"/>
      <point x="290" y="-25"/>
      <point x="296" y="-19"/>
      <point x="305" y="-8" type="curve" smooth="yes"/>
      <point x="324" y="15"/>
      <point x="338" y="32"/>
      <point x="351" y="52" type="curve" smooth="yes"/>
      <point x="362" y="69"/>
      <point x="364" y="83"/>
      <point x="364" y="99" type="curve" smooth="yes"/>
      <point x="364" y="144" type="line" smooth="yes"/>
      <point x="364" y="154"/>
      <point x="367" y="161"/>
      <point x="374" y="161" type="curve" smooth="yes"/>
      <point x="407" y="161" type="line" smooth="yes"/>
      <point x="416" y="161"/>
      <point x="423" y="166"/>
      <point x="431" y="181" type="curve" smooth="yes"/>
      <point x="442" y="201"/>
      <point x="455" y="232"/>
      <point x="463" y="252" type="curve" smooth="yes"/>
      <point x="466" y="260"/>
      <point x="469" y="267"/>
      <point x="469" y="272" type="curve" smooth="yes"/>
      <point x="469" y="280"/>
      <point x="465" y="284"/>
      <point x="456" y="284" type="curve" smooth="yes"/>
      <point x="377" y="284" type="line" smooth="yes"/>
      <point x="369" y="284"/>
      <point x="365" y="286"/>
      <point x="365" y="293" type="curve" smooth="yes"/>
      <point x="365" y="308"/>
      <point x="363" y="508"/>
      <point x="352" y="587" type="curve" smooth="yes"/>
      <point x="350" y="601"/>
      <point x="343" y="605"/>
      <point x="334" y="605" type="curve" smooth="yes"/>
      <point x="320" y="605"/>
      <point x="286" y="589"/>
      <point x="272" y="581" type="curve" smooth="yes"/>
      <point x="218" y="551"/>
      <point x="171" y="511"/>
      <point x="135" y="453" type="curve" smooth="yes"/>
      <point x="72" y="353"/>
      <point x="35" y="262"/>
      <point x="35" y="220" type="curve" smooth="yes"/>
      <point x="35" y="182"/>
      <point x="51" y="161"/>
      <point x="92" y="161" type="curve" smooth="yes"/>
      <point x="252" y="161" type="line" smooth="yes"/>
      <point x="263" y="161"/>
      <point x="268" y="156"/>
    </contour>
    <contour>
      <point x="261" y="457" type="curve" smooth="yes"/>
      <point x="267" y="412"/>
      <point x="271" y="334"/>
      <point x="271" y="297" type="curve" smooth="yes"/>
      <point x="271" y="288"/>
      <point x="267" y="283"/>
      <point x="260" y="283" type="curve" smooth="yes"/>
      <point x="172" y="283" type="line" smooth="yes"/>
      <point x="155" y="283"/>
      <point x="139" y="283"/>
      <point x="139" y="303" type="curve" smooth="yes"/>
      <point x="139" y="329"/>
      <point x="157" y="374"/>
      <point x="176" y="406" type="curve" smooth="yes"/>
      <point x="196" y="439"/>
      <point x="217" y="452"/>
      <point x="239" y="465" type="curve" smooth="yes"/>
      <point x="242" y="467"/>
      <point x="251" y="470"/>
      <point x="253" y="470" type="curve" smooth="yes"/>
      <point x="261" y="470"/>
      <point x="260" y="464"/>
    </contour>
  </outline>
</glyph>
<glyph name="nine.001" format="1">
  <advance width="499"/>
  <outline>
    <contour>
      <point x="253" y="204" type="curve" smooth="yes"/>
      <point x="253" y="194"/>
      <point x="146" y="41"/>
      <point x="123" y="9" type="curve" smooth="yes"/>
      <point x="118" y="2"/>
      <point x="113" y="-8"/>
      <point x="113" y="-14" type="curve" smooth="yes"/>
      <point x="113" y="-20"/>
      <point x="119" y="-26"/>
      <point x="127" y="-26" type="curve" smooth="yes"/>
      <point x="131" y="-26"/>
      <point x="136" y="-24"/>
      <point x="145" y="-20" type="curve" smooth="yes"/>
      <point x="163" y="-12"/>
      <point x="197" y="1"/>
      <point x="219" y="14" type="curve" smooth="yes"/>
      <point x="238" y="25"/>
      <point x="249" y="32"/>
      <point x="262" y="48" type="curve" smooth="yes"/>
      <point x="304" y="99"/>
      <point x="389" y="230"/>
      <point x="425" y="308" type="curve" smooth="yes"/>
      <point x="439" y="338"/>
      <point x="450" y="371"/>
      <point x="450" y="408" type="curve" smooth="yes"/>
      <point x="450" y="515"/>
      <point x="356" y="599"/>
      <point x="257" y="599" type="curve" smooth="yes"/>
      <point x="185" y="599"/>
      <point x="127" y="550"/>
      <point x="99" y="515" type="curve" smooth="yes"/>
      <point x="75" y="485"/>
      <point x="41" y="426"/>
      <point x="41" y="371" type="curve" smooth="yes"/>
      <point x="41" y="260"/>
      <point x="131" y="199"/>
      <point x="201" y="199" type="curve" smooth="yes"/>
      <point x="225" y="199"/>
      <point x="245" y="208"/>
      <point x="248" y="208" type="curve" smooth="yes"/>
      <point x="251" y="208"/>
      <point x="253" y="207"/>
    </contour>
    <contour>
      <point x="229" y="487" type="curve" smooth="yes"/>
      <point x="289" y="487"/>
      <point x="332" y="443"/>
      <point x="332" y="390" type="curve" smooth="yes"/>
      <point x="332" y="333"/>
      <point x="302" y="298"/>
      <point x="244" y="298" type="curve" smooth="yes"/>
      <point x="192" y="298"/>
      <point x="146" y="338"/>
      <point x="146" y="402" type="curve" smooth="yes"/>
      <point x="146" y="447"/>
      <point x="166" y="487"/>
    </contour>
  </outline>
</glyph>
<glyph name="qamatsqatanhebrew" format="1">
  <advance width="0"/>
  <outline>
    <contour>
      <point x="96" y="-140" type="curve" smooth="yes"/>
      <point x="68" y="-138"/>
      <point x="53" y="-136"/>
      <point x="41" y="-134" type="curve" smooth="yes"/>
      <point x="31" y="-132"/>
      <point x="25" y="-131"/>
      <point x="25" y="-120" type="curve" smooth="yes"/>
      <point x="25" y="-94" type="line" smooth="yes"/>
      <point x="25" y="-86"/>
      <point x="29" y="-77"/>
      <point x="41" y="-77" type="curve" smooth="yes"/>
      <point x="56" y="-76"/>
      <point x="139" y="-73"/>
      <point x="139" y="-73" type="curve"/>
      <point x="178" y="-73"/>
      <point x="225" y="-77"/>
      <point x="238" y="-77" type="curve" smooth="yes"/>
      <point x="249" y="-77"/>
      <point x="253" y="-86"/>
      <point x="253" y="-94" type="curve" smooth="yes"/>
      <point x="253" y="-120" type="line" smooth="yes"/>
      <point x="253" y="-128"/>
      <point x="248" y="-132"/>
      <point x="238" y="-134" type="curve" smooth="yes"/>
      <point x="227" y="-136"/>
      <point x="208" y="-138"/>
      <point x="183" y="-140" type="curve" smooth="yes"/>
      <point x="177" y="-140"/>
      <point x="175" y="-143"/>
      <point x="174" y="-152" type="curve" smooth="yes"/>
      <point x="172" y="-167"/>
      <point x="166" y="-246"/>
      <point x="165" y="-252" type="curve" smooth="yes"/>
      <point x="163" y="-264"/>
      <point x="159" y="-267"/>
      <point x="150" y="-267" type="curve" smooth="yes"/>
      <point x="129" y="-267" type="line" smooth="yes"/>
      <point x="120" y="-267"/>
      <point x="117" y="-264"/>
      <point x="115" y="-252" type="curve" smooth="yes"/>
      <point x="113" y="-237"/>
      <point x="108" y="-168"/>
      <point x="106" y="-152" type="curve" smooth="yes"/>
      <point x="105" y="-141"/>
      <point x="100" y="-140"/>
    </contour>
  </outline>
</glyph>
<glyph name="seven.001" format="1">
  <advance width="500"/>
  <outline>
    <contour>
      <point x="122" y="109" type="curve" smooth="yes"/>
      <point x="111" y="80"/>
      <point x="103" y="41"/>
      <point x="103" y="-10" type="curve" smooth="yes"/>
      <point x="103" y="-19"/>
      <point x="107" y="-24"/>
      <point x="114" y="-24" type="curve" smooth="yes"/>
      <point x="118" y="-24"/>
      <point x="124" y="-20"/>
      <point x="128" y="-17" type="curve" smooth="yes"/>
      <point x="155" y="3"/>
      <point x="195" y="42"/>
      <point x="221" y="71" type="curve" smooth="yes"/>
      <point x="229" y="80"/>
      <point x="232" y="95"/>
      <point x="233" y="107" type="curve" smooth="yes"/>
      <point x="234" y="121"/>
      <point x="241" y="148"/>
      <point x="248" y="166" type="curve" smooth="yes"/>
      <point x="265" y="214"/>
      <point x="307" y="282"/>
      <point x="337" y="326" type="curve" smooth="yes"/>
      <point x="357" y="355"/>
      <point x="398" y="408"/>
      <point x="420" y="449" type="curve" smooth="yes"/>
      <point x="438" y="483"/>
      <point x="454" y="522"/>
      <point x="454" y="538" type="curve" smooth="yes"/>
      <point x="454" y="548"/>
      <point x="449" y="562"/>
      <point x="428" y="562" type="curve" smooth="yes"/>
      <point x="185" y="562" type="line" smooth="yes"/>
      <point x="159" y="562"/>
      <point x="154" y="569"/>
      <point x="147" y="592" type="curve" smooth="yes"/>
      <point x="145" y="598"/>
      <point x="140" y="603"/>
      <point x="133" y="603" type="curve" smooth="yes"/>
      <point x="127" y="603"/>
      <point x="120" y="597"/>
      <point x="116" y="591" type="curve" smooth="yes"/>
      <point x="100" y="567"/>
      <point x="65" y="510"/>
      <point x="46" y="471" type="curve" smooth="yes"/>
      <point x="42" y="463"/>
      <point x="37" y="450"/>
      <point x="37" y="448" type="curve" smooth="yes"/>
      <point x="37" y="436"/>
      <point x="45" y="431"/>
      <point x="59" y="431" type="curve" smooth="yes"/>
      <point x="282" y="431" type="line" smooth="yes"/>
      <point x="292" y="431"/>
      <point x="298" y="427"/>
      <point x="298" y="420" type="curve" smooth="yes"/>
      <point x="298" y="396"/>
      <point x="263" y="346"/>
      <point x="233" y="298" type="curve" smooth="yes"/>
      <point x="189" y="229"/>
      <point x="142" y="162"/>
    </contour>
  </outline>
</glyph>
<glyph name="three.001" format="1">
  <advance width="500"/>
  <outline>
    <contour>
      <point x="116" y="123" type="curve" smooth="yes"/>
      <point x="104" y="110"/>
      <point x="72" y="52"/>
      <point x="62" y="32" type="curve" smooth="yes"/>
      <point x="60" y="28"/>
      <point x="59" y="23"/>
      <point x="59" y="22" type="curve" smooth="yes"/>
      <point x="59" y="15"/>
      <point x="62" y="12"/>
      <point x="71" y="7" type="curve" smooth="yes"/>
      <point x="99" y="-7"/>
      <point x="161" y="-17"/>
      <point x="192" y="-17" type="curve" smooth="yes"/>
      <point x="232" y="-17"/>
      <point x="298" y="-3"/>
      <point x="341" y="38" type="curve" smooth="yes"/>
      <point x="380" y="76"/>
      <point x="422" y="134"/>
      <point x="422" y="203" type="curve" smooth="yes"/>
      <point x="422" y="276"/>
      <point x="363" y="312"/>
      <point x="321" y="333" type="curve" smooth="yes"/>
      <point x="315" y="336"/>
      <point x="311" y="337"/>
      <point x="311" y="340" type="curve" smooth="yes"/>
      <point x="311" y="341"/>
      <point x="312" y="343"/>
      <point x="315" y="346" type="curve" smooth="yes"/>
      <point x="352" y="374"/>
      <point x="385" y="418"/>
      <point x="385" y="464" type="curve" smooth="yes"/>
      <point x="385" y="568"/>
      <point x="256" y="600"/>
      <point x="171" y="600" type="curve" smooth="yes"/>
      <point x="161" y="600"/>
      <point x="157" y="594"/>
      <point x="148" y="581" type="curve" smooth="yes"/>
      <point x="135" y="562"/>
      <point x="113" y="526"/>
      <point x="105" y="508" type="curve" smooth="yes"/>
      <point x="102" y="502"/>
      <point x="101" y="497"/>
      <point x="101" y="493" type="curve" smooth="yes"/>
      <point x="101" y="486"/>
      <point x="105" y="482"/>
      <point x="114" y="482" type="curve" smooth="yes"/>
      <point x="140" y="482"/>
      <point x="199" y="479"/>
      <point x="225" y="470" type="curve" smooth="yes"/>
      <point x="260" y="458"/>
      <point x="276" y="444"/>
      <point x="276" y="422" type="curve" smooth="yes"/>
      <point x="276" y="369"/>
      <point x="221" y="366"/>
      <point x="197" y="342" type="curve" smooth="yes"/>
      <point x="176" y="321"/>
      <point x="154" y="273"/>
      <point x="154" y="258" type="curve" smooth="yes"/>
      <point x="154" y="250"/>
      <point x="161" y="247"/>
      <point x="178" y="246" type="curve" smooth="yes"/>
      <point x="196" y="245"/>
      <point x="221" y="243"/>
      <point x="237" y="239" type="curve" smooth="yes"/>
      <point x="291" y="226"/>
      <point x="309" y="200"/>
      <point x="309" y="155" type="curve" smooth="yes"/>
      <point x="309" y="114"/>
      <point x="261" y="108"/>
      <point x="220" y="108" type="curve" smooth="yes"/>
      <point x="194" y="108"/>
      <point x="167" y="116"/>
      <point x="139" y="128" type="curve" smooth="yes"/>
      <point x="135" y="130"/>
      <point x="130" y="131"/>
      <point x="128" y="131" type="curve" smooth="yes"/>
      <point x="123" y="131"/>
      <point x="120" y="128"/>
    </contour>
  </outline>
</glyph>
<glyph name="two.001" format="1">
  <advance width="500"/>
  <outline>
    <contour>
      <point x="93" y="86" type="curve" smooth="yes"/>
      <point x="81" y="62"/>
      <point x="67" y="30"/>
      <point x="67" y="12" type="curve" smooth="yes"/>
      <point x="67" y="3"/>
      <point x="72" y="1"/>
      <point x="84" y="1" type="curve" smooth="yes"/>
      <point x="371" y="1" type="line" smooth="yes"/>
      <point x="379" y="1"/>
      <point x="386" y="7"/>
      <point x="396" y="22" type="curve" smooth="yes"/>
      <point x="412" y="46"/>
      <point x="429" y="80"/>
      <point x="441" y="101" type="curve" smooth="yes"/>
      <point x="446" y="110"/>
      <point x="447" y="116"/>
      <point x="447" y="119" type="curve" smooth="yes"/>
      <point x="447" y="123"/>
      <point x="444" y="126"/>
      <point x="436" y="126" type="curve" smooth="yes"/>
      <point x="233" y="126" type="line" smooth="yes"/>
      <point x="225" y="126"/>
      <point x="220" y="129"/>
      <point x="220" y="138" type="curve" smooth="yes"/>
      <point x="221" y="157"/>
      <point x="278" y="231"/>
      <point x="306" y="265" type="curve" smooth="yes"/>
      <point x="352" y="321"/>
      <point x="399" y="380"/>
      <point x="399" y="432" type="curve" smooth="yes"/>
      <point x="399" y="555"/>
      <point x="275" y="599"/>
      <point x="163" y="599" type="curve" smooth="yes"/>
      <point x="154" y="599"/>
      <point x="144" y="592"/>
      <point x="135" y="580" type="curve" smooth="yes"/>
      <point x="122" y="562"/>
      <point x="101" y="529"/>
      <point x="88" y="509" type="curve" smooth="yes"/>
      <point x="79" y="495"/>
      <point x="77" y="492"/>
      <point x="77" y="486" type="curve" smooth="yes"/>
      <point x="77" y="478"/>
      <point x="86" y="478"/>
      <point x="98" y="478" type="curve" smooth="yes"/>
      <point x="149" y="478"/>
      <point x="277" y="476"/>
      <point x="277" y="380" type="curve" smooth="yes"/>
      <point x="277" y="339"/>
      <point x="241" y="291"/>
      <point x="209" y="252" type="curve" smooth="yes"/>
      <point x="154" y="183"/>
      <point x="116" y="133"/>
    </contour>
  </outline>
</glyph>
<glyph name="zero.001" format="1">
  <advance width="500"/>
  <outline>
    <contour>
      <point x="39" y="289" type="curve" smooth="yes"/>
      <point x="39" y="79"/>
      <point x="128" y="-17"/>
      <point x="242" y="-17" type="curve" smooth="yes"/>
      <point x="356" y="-17"/>
      <point x="428" y="102"/>
      <point x="450" y="182" type="curve" smooth="yes"/>
      <point x="458" y="213"/>
      <point x="464" y="253"/>
      <point x="464" y="290" type="curve" smooth="yes"/>
      <point x="464" y="429"/>
      <point x="412" y="599"/>
      <point x="248" y="599" type="curve" smooth="yes"/>
      <point x="119" y="599"/>
      <point x="39" y="440"/>
    </contour>
    <contour>
      <point x="273" y="95" type="curve" smooth="yes"/>
      <point x="188" y="95"/>
      <point x="139" y="151"/>
      <point x="139" y="301" type="curve" smooth="yes"/>
      <point x="139" y="356"/>
      <point x="141" y="374"/>
      <point x="145" y="397" type="curve" smooth="yes"/>
      <point x="153" y="445"/>
      <point x="177" y="486"/>
      <point x="224" y="486" type="curve" smooth="yes"/>
      <point x="335" y="486"/>
      <point x="362" y="371"/>
      <point x="362" y="254" type="curve" smooth="yes"/>
      <point x="362" y="103"/>
      <point x="310" y="95"/>
    </contour>
  </outline>
</glyph>
